<?xml version="1.0" encoding="iso-8859-1"?>
<!-- Generator: Adobe Illustrator 19.0.0, SVG Export Plug-In . SVG Version: 6.00 Build 0)  -->
<svg version="1.1" id="Capa_1" xmlns="http://www.w3.org/2000/svg" xmlns:xlink="http://www.w3.org/1999/xlink" x="0px" y="0px"
	 viewBox="0 0 512 512" style="enable-background:new 0 0 512 512;" xml:space="preserve">
<g>
	<g>
		<g>
			<rect x="161" y="161" width="190" height="190"/>
			<path d="M512,181v-30h-71V71h-80V0h-30v71h-30V0h-30v71h-30V0h-30v71h-30V0h-30v71H71v80H0v30h71v30H0v30h71v30H0v30h71v30H0v30
				h71v80h80v71h30v-71h30v71h30v-71h30v71h30v-71h30v71h30v-71h80v-80h71v-30h-71v-30h71v-30h-71v-30h71v-30h-71v-30H512z M381,381
				H131V131h250V381z"/>
		</g>
	</g>
</g>
<g>
</g>
<g>
</g>
<g>
</g>
<g>
</g>
<g>
</g>
<g>
</g>
<g>
</g>
<g>
</g>
<g>
</g>
<g>
</g>
<g>
</g>
<g>
</g>
<g>
</g>
<g>
</g>
<g>
</g>
</svg>
