<svg height="681pt" viewBox="-100 -21 681 681.33427" width="681pt" xmlns="http://www.w3.org/2000/svg"><path d="m421.816406 244.867188c-3.1875 0-6.210937 1.4375-8.234375 3.898437-2.019531 2.445313-2.828125 5.695313-2.210937 8.824219 2.949218 14.863281 6.875 57.339844-10.039063 75.183594-6.816406 7.195312-16.660156 9.878906-30.097656 8.167968-7.890625-3.523437-89.785156-47.902344-3.128906-327.136718 1-3.234376.414062-6.75-1.597657-9.472657-2.011718-2.722656-5.1875-4.332031-8.574218-4.332031-70.113282 0-127.40625 53.921875-165.667969 155.941406-22.484375 59.980469-32.175781 119.109375-35.328125 141.921875-.402344-.242187-.765625-.53125-1.105469-.828125-12.15625-10.488281-13.679687-54.894531-10.867187-83.0625.421875-4.257812-1.761719-8.367187-5.515625-10.421875-3.769531-2.03125-8.386719-1.628906-11.730469 1.042969-1.117188.894531-108.890625 89.511719-28.222656 229.878906-.941406.332032-2.058594.609375-3.386719.714844-8.089844.722656-32.257813-3.578125-81.535156-59.011719-2.769531-3.105469-7.101563-4.300781-11.082031-3.105469-3.996094 1.222657-6.890626 4.660157-7.433594 8.800782-.546875 4.195312-12.636719 103.472656 53.007812 178.214844 45.828125 52.1875 117.507813 78.664062 213.058594 78.664062 2.128906 0 212.917969-2.683594 212.917969-234.210938 0-148.152343-40.742188-159.671874-53.226563-159.671874zm-70.300781 277.894531c-22.214844 57.457031-87.96875 63.070312-112.75 63.070312-5.34375 0-8.78125-.257812-9.464844-.324219-20.589843.542969-38.496093-7.609374-52.441406-22.675781-37.960937-40.996093-32.074219-123.640625-31.8125-127.144531.277344-3.628906 2.40625-6.875 5.625-8.589844 3.226563-1.683594 7.097656-1.640625 10.261719.167969l10.859375 6.195313c7.558593 4.3125 16.492187 4.175781 23.878906-.371094 7.515625-4.652344 11.699219-12.722656 11.207031-21.597656-5.894531-106.113282 43.757813-199.65625 45.875-203.585938 2.578125-4.789062 8.335938-6.875 13.382813-4.824219 5.03125 2.046875 7.71875 7.570313 6.226562 12.789063-10.921875 38.226562 16.265625 123.03125 72.714844 226.855468 13.878906 25.53125 16.234375 54.722657 6.4375 80.035157zm0 0"/><path d="m251.464844 265.394531c-12.785156 36.21875-26.421875 89.246094-23.335938 144.894531.925782 16.796876-7.023437 32.09375-21.277344 40.902344-12.628906 7.792969-27.589843 8.84375-40.945312 3.09375.304688 24.613282 4.152344 69.902344 26.582031 94.097656 9.898438 10.683594 22.226563 15.863282 37.6875 15.863282 1.644531.132812 80.222657 5.761718 101.476563-49.160156 7.535156-19.480469 5.609375-42.15625-5.292969-62.214844-26.261719-48.300782-64.367187-126.03125-74.894531-187.476563zm0 0"/></svg>