<?xml version="1.0" encoding="iso-8859-1"?>
<!-- Generator: Adobe Illustrator 22.0.0, SVG Export Plug-In . SVG Version: 6.00 Build 0)  -->
<svg xmlns="http://www.w3.org/2000/svg" xmlns:xlink="http://www.w3.org/1999/xlink" version="1.1" x="0px" y="0px" viewBox="0 0 45.106 60" style="enable-background:new 0 0 45.106 60;" xml:space="preserve" width="512" height="512">
<g id="_x34_6-Forest_Fire">
	<path style="fill:#EBBA16;" d="M34.106,1c-9,29,1,32,1,32c7,1,5-9,5-9c4,0,4,14,4,14c0,21-19,21-19,21c-27,0-24-23-24-23   c8,9,10,5,10,5c-8-13,2-21,2-21s-1,10,3,9C16.106,29,19.106,1,34.106,1z"/>
	<path style="fill:#ED8A19;" d="M25.106,20c0,0-4.735,8.794-4.191,18.593c0.142,2.551-2.572,4.256-4.79,2.989L15.106,41   c0,0-1,13,7,13c0,0,8.168,0.681,10.465-5.258c0.842-2.178,0.564-4.63-0.551-6.681C29.485,37.402,23.519,25.554,25.106,20z"/>
	<path style="fill:#4D007E;" d="M25.106,60c-8.975,0-15.708-2.486-20.013-7.389c-6.165-7.021-5.03-16.347-4.979-16.74   c0.051-0.389,0.323-0.712,0.698-0.827c0.374-0.112,0.781,0,1.041,0.292c4.629,5.207,6.899,5.611,7.659,5.543   c0.125-0.011,0.23-0.036,0.318-0.067c-7.577-13.185,2.546-21.509,2.651-21.593c0.314-0.251,0.749-0.289,1.102-0.098   c0.354,0.192,0.558,0.578,0.518,0.979c-0.263,2.646-0.12,6.816,1.021,7.802c0.032,0.028,0.066,0.055,0.104,0.078   c0.295-2.143,1.205-7.697,3.318-13.331C22.138,5.065,27.519,0,34.106,0c0.318,0,0.617,0.151,0.805,0.407s0.244,0.586,0.15,0.89   c-8.14,26.229-0.447,30.396,0.294,30.728c1.262,0.161,2.188-0.091,2.827-0.767c1.589-1.677,1.219-5.667,0.943-7.062   c-0.058-0.294,0.018-0.599,0.208-0.829C39.523,23.135,39.806,23,40.106,23c1.173,0,5,1.082,5,15C45.106,59.748,25.306,60,25.106,60   z M2.017,38.437c0.064,3.047,0.772,8.531,4.592,12.87C10.518,55.748,16.741,58,25.106,58c0.734-0.002,18-0.276,18-20   c-0.001-4.563-0.68-9.513-1.752-11.763c0.08,1.99-0.148,4.734-1.717,6.394c-1.121,1.185-2.692,1.641-4.672,1.359   c-0.05-0.008-0.098-0.019-0.146-0.032c-0.211-0.063-2.103-0.7-3.614-3.538c-2.041-3.833-3.387-11.846,1.525-28.33   C19.973,3.784,17.128,28.845,17.1,29.106c-0.045,0.417-0.345,0.762-0.752,0.863c-0.959,0.241-1.836,0.049-2.534-0.555   c-1.517-1.312-1.832-4.434-1.834-6.789c-2.283,2.917-5.375,9.153-0.023,17.85c0.181,0.295,0.198,0.662,0.043,0.972   c-0.062,0.123-0.645,1.207-2.163,1.408C7.818,43.106,5.193,41.638,2.017,38.437z"/>
	<path style="fill:#4D007E;" d="M22.912,55.026c-0.502,0-0.825-0.024-0.889-0.03c-1.934,0.051-3.615-0.715-4.926-2.13   c-3.566-3.851-3.013-11.614-2.988-11.943c0.026-0.341,0.226-0.646,0.529-0.807c0.303-0.158,0.667-0.154,0.964,0.016l1.019,0.582   c0.711,0.405,1.549,0.392,2.243-0.035c0.706-0.437,1.099-1.195,1.053-2.029c-0.554-9.967,4.11-18.754,4.309-19.123   c0.242-0.45,0.783-0.646,1.257-0.453c0.473,0.192,0.725,0.711,0.585,1.201c-1.026,3.591,1.528,11.557,6.83,21.309   c1.305,2.4,1.526,5.142,0.605,7.52C31.415,54.5,25.24,55.026,22.912,55.026z M16.069,42.671c0.029,2.312,0.39,6.566,2.497,8.839   c0.93,1.003,2.088,1.49,3.54,1.49c0.155,0.012,7.536,0.541,9.532-4.618c0.708-1.83,0.527-3.96-0.497-5.844   c-2.467-4.537-6.046-11.838-7.035-17.61c-1.201,3.402-2.482,8.383-2.192,13.61c0.088,1.578-0.659,3.015-1.998,3.842   C18.729,43.112,17.324,43.211,16.069,42.671z"/>
</g>

</svg>
