<?xml version="1.0" encoding="iso-8859-1"?>
<!-- Generator: Adobe Illustrator 19.0.0, SVG Export Plug-In . SVG Version: 6.00 Build 0)  -->
<svg version="1.1" id="Capa_1" xmlns="http://www.w3.org/2000/svg" xmlns:xlink="http://www.w3.org/1999/xlink" x="0px" y="0px"
	 viewBox="0 0 512 512" style="enable-background:new 0 0 512 512;" xml:space="preserve">
<g>
	<g>
		<path d="M481.616,149.553l-25.65-70.475c-8.486-23.316-34.36-35.383-57.675-26.894l-47.161,17.166
			c0.076-0.461,0.155-0.922,0.221-1.387c3.093-21.747-6.014-42.742-24.356-56.16c-17.342-12.687-39.535-15.321-59.363-7.049
			c-19.83,8.273-33.57,25.897-36.744,47.072l-6.738,43.457l-34.842-30.799c-16.099-14.231-37.953-18.903-58.46-12.491
			c-45.151,14.11-57.506,71.958-22.495,103.38c0.629,0.564,1.271,1.108,1.919,1.644l-50.262,18.294
			c-23.367,8.505-35.401,34.302-26.893,57.674l25.651,70.475l31.942-11.554v175.096c0,24.812,19.986,44.999,44.799,44.999
			c4.39,0,290.694,0,299.992,0c24.812,0,44.999-20.186,44.999-44.999V240.008c-9.638,0-247.401,0-247.401,0L481.616,149.553z
			 M408.551,80.374c7.77-2.828,16.397,1.193,19.224,8.965l15.392,42.285l-140.95,51.302l-20.52-56.38L408.551,80.374z
			 M260.545,56.346c1.613-10.774,8.581-19.71,18.635-23.905c9.962-4.156,21.226-2.919,30.102,3.574
			c20.154,14.744,15.322,42.987-7.663,51.356c-3.853,1.402-28.97,10.545-30.184,10.986l-18.445,6.713L260.545,56.346z
			 M253.505,136.806l20.52,56.379c-9.859,3.589-18.331,6.672-28.19,10.261l-20.52-56.38L253.505,136.806z M139.795,80.624
			c10.269-3.208,21.376-0.974,29.644,6.334l38.88,34.37c-11.28,4.106-37.952,13.814-48.77,17.75
			c-10.89,3.961-22.537,1.706-31.16-6.034C110.347,116.852,117.224,87.678,139.795,80.624z M76.696,265.009l-15.391-42.285
			c-2.836-7.787,1.173-16.39,8.965-19.227l126.855-46.171l20.52,56.379L76.696,265.009z M330.502,270.007h120.197v196.995
			c0,8.271-6.929,15-15.2,15H330.502V270.007z M270.504,270.007h30.199v211.994h-30.199V270.007z M240.704,270.007v211.994H135.507
			c-8.271,0-15-6.729-15-15V280.987l30.166-10.98H240.704z"/>
	</g>
</g>
<g>
</g>
<g>
</g>
<g>
</g>
<g>
</g>
<g>
</g>
<g>
</g>
<g>
</g>
<g>
</g>
<g>
</g>
<g>
</g>
<g>
</g>
<g>
</g>
<g>
</g>
<g>
</g>
<g>
</g>
</svg>
