<?xml version="1.0" standalone="no"?>
<!DOCTYPE svg PUBLIC "-//W3C//DTD SVG 1.1//EN" "http://www.w3.org/Graphics/SVG/1.1/DTD/svg11.dtd" >
<svg xmlns="http://www.w3.org/2000/svg">
<metadata>Generated by IcoMoon</metadata>
<defs>
<font id="icomoon" horiz-adv-x="1024">
<font-face units-per-em="1024" ascent="960" descent="-64" />
<missing-glyph horiz-adv-x="1024" />
<glyph unicode="&#x20;" horiz-adv-x="512" d="" />
<glyph unicode="&#xe900;" glyph-name="arrow-down" d="M192 608h640l-320-320z" />
<glyph unicode="&#xe901;" glyph-name="arrow-up" d="M192 288l320 320 320-320z" />
<glyph unicode="&#xe902;" glyph-name="bag" d="M879.7 676.63c-2.477 16.537-16.515 28.114-33.029 28.114h-189.919v77.726c0 80.207-65.233 145.53-145.329 145.53s-145.329-65.323-145.329-145.53v-77.726h-189.919c-16.515 0-30.552-11.576-33.029-28.114l-110.649-669.767c-1.651-9.922 0.826-19.845 7.432-27.287s15.689-11.576 25.598-11.576h892.62c18.992 0 33.855 14.884 33.855 33.902 0 4.134-0.826 7.442-1.651 10.749l-110.649 663.979zM433.803 782.47c0 42.997 34.681 77.726 77.619 77.726s77.619-34.729 77.619-77.726v-77.726h-155.238v77.726zM105.16 34.977l99.914 601.964h161.018v-189.354c0-19.018 14.863-33.902 33.855-33.902s33.855 14.884 33.855 33.902v189.354h155.238v-189.354c0-19.018 14.863-33.902 33.855-33.902s33.855 14.884 33.855 33.902v189.354h161.018l99.914-601.964h-812.524z" />
<glyph unicode="&#xe903;" glyph-name="balloon" d="M582.066 333.649c38.826 58.173 68.003 124.443 68.003 192.448 0 18.735-1.363 36.624-3.427 53.967 27.471 18.38 71.975 26.622 108.585 26.622 107.228 0 176.539-80.704 176.539-205.571 0-118.080-138.085-235.832-176.553-266.311-30.857 24.443-136.786 106.547-173.148 198.845zM339.802 181.247c-45.534 36.105-235.406 196.485-235.406 358.533 0 168.197 92.415 276.867 235.406 276.867 143.005 0 235.406-108.669 235.406-276.867 0-161.884-189.872-322.401-235.406-358.533zM992 405.164c0 164.221-93.325 270.358-237.734 270.358-42.849 0-82.687-10.199-117.003-29.421-32.616 154.533-142.039 249.899-297.46 249.899-186.993 0-307.802-137.756-307.802-350.929 0-208.607 241.806-402.992 288.975-438.928v-138.143h37.67v138.143c26.502 20.197 114.367 90.383 186.4 185.114 52.27-109.496 160.616-197.913 190.393-220.818v-102.439h37.654v102.408c40.244 30.968 218.907 177.314 218.907 334.756zM268.194 741.911c-5.21 0-9.421-4.194-9.421-9.348s4.212-9.348 9.421-9.348c135.986 0 223.852-101.588 223.852-258.844 0-5.169 4.212-9.332 9.406-9.332 5.21 0 9.421 4.163 9.421 9.332 0 168.601-95.259 277.54-242.679 277.54zM707.261 533.858c0-5.154 4.212-9.332 9.421-9.332 101.639 0 167.308-76.082 167.308-193.812 0-5.154 4.212-9.348 9.421-9.348 5.194 0 9.406 4.194 9.406 9.348 0 129.074-73.063 212.492-186.135 212.492-5.21 0-9.421-4.179-9.421-9.348z" />
<glyph unicode="&#xe904;" glyph-name="box" d="M452.864 315.136l187.136 84.864-187.136 84.864-84.864 187.136-84.864-187.136-187.136-84.864 187.136-84.864 84.864-187.136 84.864 187.136zM791.936 616.064l88.064 39.936-88.064 39.936-39.936 88.064-39.936-88.064-88.064-39.936 88.064-39.936 39.936-88.064 39.936 88.064zM884.48 928c29.013 0 54.187-10.24 75.52-30.72s32-45.227 32-74.24v-747.52c0-29.013-10.667-54.187-32-75.52s-46.507-32-75.52-32h-744.96c-29.013 0-54.187 10.667-75.52 32s-32 46.507-32 75.52v747.52c0 29.013 10.667 53.76 32 74.24s46.507 30.72 75.52 30.72h744.96z" />
<glyph unicode="&#xe905;" glyph-name="cake" d="M62 80h900c18 0 30 12 30 30v420c0 3 0 6-3 9v3c0 3-3 3-3 6 0 0 0 3-3 3-3 3-6 3-9 6v0l-570 240c-3 3-9 3-12 3-246 0-360-141-360-270v-420c0-18 12-30 30-30v0zM332 500v-150h-240v150h240zM92 140v150h240c0-51 39-90 90-90s90 39 90 90h420v-150h-840zM932 350h-420v150h420v-150zM386 740l426-180h-330c-18 0-30-12-30-30v-240c0-18-12-30-30-30s-30 12-30 30v240c0 18-12 30-30 30h-267c15 78 87 177 291 180v0z" />
<glyph unicode="&#xe906;" glyph-name="calendar" d="M925.167 64.873v701.314c0 17.094-13.44 30.968-30 30.968h-173.167v-54.961h-60v54.961h-120v-54.961h-60v54.961h-120v-54.961h-60v54.961h-171.167c-16.56 0-30-13.874-30-30.968v-701.314c0-17.094 13.44-30.968 30-30.968h764.334c16.56 0 30 13.874 30 30.968zM902 866.065c49.62 0 90-41.683 90-92.903v-712.258c0-51.221-40.38-92.903-90-92.903h-780c-49.62 0-90 41.683-90 92.903v712.258c0 51.221 40.38 92.903 90 92.903h180v61.935h60v-61.935h120v61.935h60v-61.935h120v61.935h60v-61.935h180zM242 556.387v61.935h120v-61.935h-120zM452 556.387v61.935h120v-61.935h-120zM662 556.387v61.935h120v-61.935h-120zM242 370.581v61.935h120v-61.935h-120zM452 370.581v61.935h120v-61.935h-120zM662 370.581v61.935h120v-61.935h-120zM242 184.774v61.935h120v-61.935h-120zM452 184.774v61.935h120v-61.935h-120zM662 184.774v61.935h120v-61.935h-120z" />
<glyph unicode="&#xe907;" glyph-name="cancel" d="M512 394.169l-172.445-172.44c-14.848-14.873-38.985-14.873-53.832 0-7.437 7.436-11.142 17.157-11.142 26.903s3.706 19.492 11.142 26.928l172.445 172.44-172.445 172.44c-7.437 7.436-11.142 17.157-11.142 26.903s3.706 19.492 11.142 26.928c14.848 14.873 38.985 14.873 53.832 0l172.445-172.44 172.445 172.44c14.848 14.873 38.985 14.873 53.832 0 14.873-14.873 14.873-38.958 0-53.831l-172.445-172.44 172.445-172.44c14.873-14.873 14.873-38.958 0-53.831-14.848-14.873-38.985-14.873-53.832 0l-172.445 172.44z" />
<glyph unicode="&#xe908;" glyph-name="candle" d="M53.521-32c10.425 0 774.088 2.326 919.059 2.77 15.311 0.047 17.74 9.623 19.42 19.072v43.775c0 0-894.259-6.189-894.259 0 0 132.076-1.858 352.349-1.858 352.349 2.722-2.833 5.596-6.265 8.941-10.339 12.33-15.024 7.077-35.588 39.869-35.588 32.795 0 49.683 20.573 62.014 35.594 11.276 13.737 17.253 20.34 29.812 20.34 12.556 0 18.533-6.603 29.806-20.338 12.328-15.021 29.213-35.596 62.005-35.596s49.678 20.573 62.005 35.596c11.273 13.737 17.25 20.338 29.806 20.338 12.561 0 18.539-6.603 29.812-20.34 12.33-15.021 29.219-35.594 62.014-35.594s49.683 20.573 62.014 35.594c11.276 13.737 17.253 20.34 29.812 20.34 12.561 0 18.541-6.603 29.817-20.34 12.33-15.021 29.219-35.594 62.014-35.594s49.683 20.573 62.014 35.596c11.276 13.737 17.253 20.338 29.812 20.338 12.567 0 18.544-6.603 29.823-20.34 12.333-15.021 29.222-35.594 62.019-35.594s25.686 20.567 38.019 35.588c3.348 4.078 6.225 7.512 8.949 10.348v-357.946c0-11.584 65.741-24.503 65.741-12.919v479.094c0 45.424-36.771 82.38-81.969 82.38h-134.741v163.599c0 11.584-9.344 20.975-20.871 20.975h-70.952c-11.526 0-20.871-9.391-20.871-20.975v-163.599h-106.435v163.599c0 11.584-9.344 20.975-20.871 20.975h-70.957c-11.526 0-20.871-9.391-20.871-20.975v-163.599h-106.435v163.599c0 11.584-9.344 20.975-20.871 20.975h-70.957c-11.526 0-20.871-9.391-20.871-20.975v-163.599h-110.364c-45.197 0-81.966-36.956-81.966-82.38l0.65-505.231c0-11.581 9.344-20.972 20.871-20.972zM704.338 719.206h29.216v-142.624h-29.216v142.624zM485.208 719.206h29.216v-142.624h-29.216v142.624zM266.077 719.206h29.216v-142.624h-29.216v142.624zM134.079 522.312h754.033c22.181 0 40.227-13.669 40.227-35.962v-27.607c-40.227 3.18-40.227-41.919-49.047-52.754s-18.544 6.603-29.82 20.34c-12.333 15.021-29.222 35.594-62.019 35.594-32.795 0-49.683-20.573-62.011-35.594-11.276-13.737-17.253-20.34-29.814-20.34s-18.541 6.603-29.817 20.34c-12.33 15.021-29.219 35.594-62.014 35.594s-49.683-20.573-62.014-35.594c-11.276-13.737-17.253-20.34-29.812-20.34s-18.539 6.603-29.812 20.34c-12.33 15.021-29.219 35.594-62.014 35.594s-49.678-20.573-62.008-35.596c-11.273-13.737-17.25-20.338-29.806-20.338s-18.533 6.603-29.806 20.338c-12.328 15.021-29.213 35.596-62.005 35.596-32.795 0-49.683-20.573-62.014-35.594-11.276-13.737-17.253-20.34-29.812-20.34s-17.131 55.934-50.839 52.754v27.607c-0.003 22.293 18.041 35.962 40.222 35.962zM499.814 769.62c-17.634 0-35.271 6.746-48.698 20.237-26.854 26.988-26.854 70.899 0 97.887l33.941 34.111c3.913 3.935 9.222 6.144 14.757 6.144s10.844-2.209 14.757-6.144l33.941-34.111c26.854-26.985 26.854-70.899 0-97.885-13.424-13.494-31.061-20.24-48.698-20.24zM480.63 858.080c-10.577-10.63-10.577-27.928 0-38.558 10.577-10.633 27.791-10.636 38.369 0 10.577 10.63 10.577 27.928 0 38.558l-19.184 19.28-19.184-19.28zM280.684 769.62c-17.634 0-35.271 6.746-48.698 20.237-26.854 26.988-26.854 70.899 0 97.887l33.941 34.111c3.913 3.935 9.222 6.144 14.757 6.144s10.844-2.209 14.757-6.144l33.941-34.111c26.854-26.985 26.854-70.899 0-97.885-13.424-13.494-31.061-20.24-48.698-20.24zM261.499 858.080c-10.577-10.63-10.577-27.928 0-38.558 10.577-10.633 27.791-10.636 38.369 0 10.577 10.63 10.577 27.928 0 38.558l-19.184 19.28-19.184-19.28zM718.945 769.62c-17.634 0-35.271 6.746-48.698 20.237-26.854 26.988-26.854 70.899 0 97.887l33.941 34.111c3.913 3.935 9.222 6.144 14.757 6.144s10.844-2.209 14.757-6.144l33.941-34.111c26.854-26.985 26.854-70.899 0-97.885-13.424-13.494-31.061-20.24-48.698-20.24zM699.761 858.080c-10.577-10.63-10.577-27.928 0-38.558 10.577-10.633 27.791-10.636 38.369 0 10.577 10.63 10.577 27.928 0 38.558l-19.184 19.28-19.184-19.28z" />
<glyph unicode="&#xe909;" glyph-name="cartplus" d="M432.63 739.384c-17.238 0-31.153 13.995-31.153 31.332s13.915 31.332 31.153 31.332h94.083v94.621c0 17.337 13.915 31.332 31.153 31.332s31.153-13.995 31.153-31.332v-94.621h94.083c17.238 0 31.153-13.995 31.153-31.332s-13.915-31.332-31.153-31.332h-94.083v-94.621c0-17.337-13.915-31.332-31.153-31.332s-31.153 13.995-31.153 31.332v94.621h-94.083zM774.277 94.371c34.476 0 62.514-28.407 62.514-63.081 0-34.883-28.038-63.29-62.514-63.29s-62.306 28.407-62.306 63.29c0 34.674 27.83 63.081 62.306 63.081zM397.946 94.371c34.269 0 62.306-28.407 62.306-63.081 0-34.883-28.038-63.29-62.306-63.29-34.476 0-62.514 28.407-62.514 63.29 0 34.674 28.038 63.081 62.514 63.081zM815.192 224.71h-469.583l-69.16 265.692 599.595-0.627-60.853-265.065zM939.597 540.533c-6.023 7.52-14.954 11.906-24.507 11.906l-655.048 0.627-19.938 76.867c-3.531 13.786-15.992 23.394-30.115 23.394h-146.835c-17.238 0-31.153-13.995-31.153-31.332s13.915-31.332 31.153-31.332h122.744l19.938-76.031c0-0.627 0.208-1.044 0.208-1.462l85.36-327.728c3.531-13.786 15.992-23.394 30.115-23.394h518.597c14.538 0 26.999 10.026 30.322 24.23l74.975 327.728c2.285 9.399 0 19.008-5.815 26.527z" />
<glyph unicode="&#xe90a;" glyph-name="check-normal" d="M912.497 113.782c0-36.545-29.734-66.253-66.253-66.253h-668.489c-36.518 0-66.253 29.708-66.253 66.253v668.462c0 36.518 29.734 66.253 66.253 66.253h668.489c36.518 0 66.253-29.734 66.253-66.253v-668.462zM846.244 928h-668.489c-80.351 0-145.756-65.378-145.756-145.756v-668.462c0-80.351 65.405-145.756 145.756-145.756h668.489c80.378 0 145.756 65.405 145.756 145.756v668.462c0 80.378-65.378 145.756-145.756 145.756z" />
<glyph unicode="&#xe90b;" glyph-name="check-select" d="M664.606 608.786l-238.271-235.336-64.954 74.205c-14.443 16.59-39.593 18.233-56.103 3.763s-18.18-39.567-3.737-56.078l92.754-106.007c7.235-8.269 17.517-13.171 28.462-13.569 0.504-0.027 0.981-0.027 1.458-0.027 10.441 0 20.485 4.108 27.932 11.475l268.323 265.018c15.636 15.424 15.768 40.601 0.345 56.21-15.424 15.663-40.573 15.769-56.209 0.345zM912.497 113.76c0-36.546-29.734-66.254-66.253-66.254h-668.489c-36.518 0-66.253 29.708-66.253 66.254v668.481c0 36.519 29.734 66.254 66.253 66.254h668.489c36.518 0 66.253-29.735 66.253-66.254v-668.481zM846.244 928h-668.489c-80.351 0-145.756-65.38-145.756-145.76v-668.481c0-80.353 65.405-145.76 145.756-145.76h668.489c80.378 0 145.756 65.406 145.756 145.76v668.481c0 80.38-65.378 145.76-145.756 145.76z" />
<glyph unicode="&#xe90c;" glyph-name="circle" d="M512 42.805c-223.443 0-405.195 181.752-405.195 405.195 0 223.418 181.752 405.195 405.195 405.195 223.418 0 405.195-181.777 405.195-405.195 0-223.443-181.777-405.195-405.195-405.195zM512 928c-264.686 0-480-215.339-480-480s215.314-480 480-480c264.661 0 480 215.339 480 480s-215.339 480-480 480z" />
<glyph unicode="&#xe90d;" glyph-name="close" d="M522.667 571.779c-21.633 0-39.096 17.608-39.096 39.361v277.498c0 21.728 17.463 39.361 39.096 39.361s39.096-17.634 39.096-39.361v-277.498c0-21.754-17.463-39.361-39.096-39.361zM683.742 795.299c163.942-62.112 265.592-214.546 265.592-397.787 0-236.851-191.309-429.512-426.667-429.512-235.097 0-426.667 192.661-426.667 429.512 0 173.007 102.431 328.353 260.639 395.74 20.069 8.45 43.005-0.918 51.346-20.94s-1.043-43.088-20.851-51.59c-129.277-55.027-212.942-181.902-212.942-323.21 0-193.422 156.384-350.789 348.475-350.789s348.475 157.367 348.475 350.789c0 149.652-82.362 273.825-215.027 324.129-20.069 7.662-30.234 30.387-22.676 50.698 7.559 20.363 30.234 30.754 50.303 22.961z" />
<glyph unicode="&#xe90e;" glyph-name="coffee" d="M786.96 299.036h63.526c36.513 0 66.207 29.694 66.207 66.207s-29.694 66.207-66.207 66.207h-33.931c-2.019-46.775-12.116-91.465-29.595-132.414zM98.207 448.002c0-173.396 165.087-314.484 338.484-314.484s314.484 141.087 314.484 314.484v49.655h-652.968v-49.655zM824.857 497.657h33.429c73.743 0 133.714-59.388 133.714-132.414s-59.971-132.414-133.714-132.414h-101.055c-69.364-99.84-185.428-165.518-316.803-165.518-228.091-15.938-408.429 170.781-408.429 380.691v115.862h792.857v-66.207zM188.414-32v66.207h496.553v-66.207h-496.553zM387.036 743.249v-46.974h-66.207v46.974c0 45.551 29.065 85.871 72.298 100.271 16.155 5.396 27.013 20.458 27.013 37.506v46.974h66.207v-46.974c0-45.551-29.065-85.871-72.298-100.271-16.155-5.396-27.013-20.458-27.013-37.506zM453.243 630.068v46.974c0 45.551 29.065 85.871 72.298 100.271 16.155 5.396 27.013 20.458 27.013 37.506v46.974h66.207v-46.974c0-45.551-29.065-85.871-72.298-100.271-16.155-5.396-27.013-20.458-27.013-37.506v-46.974h-66.207z" />
<glyph unicode="&#xe90f;" glyph-name="coin" d="M992 415.346c-0.181-11.069-0.285-20.697-0.285-28.007 0-231.216-215.004-419.339-479.235-419.339s-479.209 188.123-479.209 419.339c0 0-1.27 153.783-1.27 108.966 0 238.037 215.393 431.695 480.117 431.695 254.381 0 462.645-178.933 478.561-404.125 0.493-33.104 1.167-51.072 1.322-108.529v0zM512.496 23.424c176.174 0 326.592 95.291 386.381 228.999-83.736-111.877-225.802-185.637-386.733-185.637-159.8 0-300.986 72.761-384.948 183.339 60.544-132.608 210.232-226.701 385.3-226.701v0zM932.368 498.961c-1.63 204.538-189.442 370.526-420.252 370.526-231.803 0-420.405-167.404-420.405-373.182 0-205.752 188.601-373.156 420.405-373.156 231.498 0 419.844 166.974 420.354 372.347-0.025 1.189-0.076 2.302-0.102 3.465v0zM533.006 736.445c-180.593-16.706-264.615-103.442-305.995-263.559-0.496-4.482-18.043-28.861-31.834-28.861s-29.772 6.47-35.098 28.861c0 180.375 160.254 331.297 365.9 331.297 23.56 0 23.56-7.461 33.146-30.15 0-30.15-26.12-37.589-26.12-37.589zM727.998 308.025c78.329 85.102 100.722 195.622 73.62 274.458 0 0-15.268 35.518 8.681 47.726 21.040 9.327 39.084-8.287 41.126-12.208 63.733-122.347 9.25-279.102-81.117-355.768-9.192-7.798-33.405-6.32-42.311 4.999s-8.906 26.354 0 40.792z" />
<glyph unicode="&#xe910;" glyph-name="coins" d="M585.996 191.865v70.087c41.668-10.25 92.701-15.862 145.312-15.862 87.932 0 176.625 15.588 219.84 45.758v-55.571c0-24.919-85.645-61.117-219.84-61.117-53.547 0-104.645 5.907-145.312 16.704zM948.537 344.021c0-24.959-85.033-61.186-218.269-61.186-52.927 0-103.897 5.936-144.273 16.734v65.78c41.371-10.262 92.038-15.88 144.273-15.88 87.303 0 175.363 15.606 218.269 45.81v-51.259zM948.537 445.984c0-24.959-85.033-61.186-218.269-61.186-52.927 0-103.897 5.936-144.273 16.734v66.295c41.371-10.251 92.038-15.869 144.273-15.869 87.303 0 175.363 15.606 218.269 45.799v-51.773zM513.039 597.642c42.906-30.204 130.966-45.81 218.269-45.81s175.363 15.606 218.269 45.81v-48.097c0-24.948-85.033-61.186-218.269-61.186-52.927 0-105.669 5.824-146.046 16.612v17.4c0 28.408-26.222 48.208-70.652 63.047l-1.571 12.224zM948.537 646.939c0-24.959-85.033-61.197-218.269-61.197s-218.269 36.239-218.269 61.197v51.932c42.906-30.204 130.966-45.81 218.269-45.81s175.363 15.606 218.269 45.81v-51.932zM948.537 754.604c0-24.452-85.033-59.998-218.269-59.998s-218.269 35.545-218.269 59.998c0 24.463 85.033 60.008 218.269 60.008s218.269-35.545 218.269-60.008zM77.352 103.819v56.064c44.867-30.438 136.918-46.153 228.2-46.153 91.271 0 183.322 15.715 228.189 46.153v-56.064c0-25.14-88.898-61.659-228.189-61.659-139.302 0-228.2 36.519-228.2 61.659zM79.591 260.028c44.427-30.14 135.574-45.713 225.961-45.713 90.375 0 181.523 15.573 225.95 45.713v-47.891c0-24.895-88.025-61.056-225.95-61.056-137.935 0-225.961 36.162-225.961 61.056v47.891zM531.502 362.377l-0.008-50.349c0-24.895-88.025-61.056-225.95-61.056-137.935 0-225.961 36.162-225.961 61.056l0.008 50.349c44.427-30.14 135.574-45.713 225.961-45.713 90.375 0 181.523 15.573 225.95 45.713zM531.496 410.526c0-24.895-88.025-61.056-225.95-61.056-137.935 0-225.961 36.162-225.961 61.056l0.006 52.442c44.427-30.14 135.574-45.702 225.961-45.702 90.375 0 181.523 15.562 225.95 45.702l-0.006-52.442zM524.48 525.165c0-24.465-85.29-60.003-218.928-60.003-133.649 0-218.939 35.538-218.939 60.003s85.28 54.415 218.93 54.415c133.638 0 218.938-29.95 218.938-54.415zM466.519 767.526v-163.032c-47.198 11.338-104.203 17.132-160.966 17.132-135.938 0-273.552-33.13-273.552-96.462v-428.703c0-63.332 137.615-96.462 273.552-96.462 135.926 0 279.709 33.13 279.709 96.462 0 3.058 0 5.581 0 7.569 0 10.455 0 26.139 0 47.050 46.161-11.195 96.285-15.91 154.81-15.91 135.938 0 251.929 33.142 251.929 96.474v535.881c0 63.344-115.991 96.474-251.929 96.474s-273.552-33.13-273.552-96.474z" />
<glyph unicode="&#xe911;" glyph-name="coupon" d="M32 34.627v318.285h960v-318.285c0-36.645-30-66.627-66.667-66.627h-826.667c-36.667 0-66.667 29.982-66.667 66.627zM298.667 156.084v-53.302h160v53.302h-160zM138.667 156.084v-53.302h106.667v53.302h-106.667zM491.784 760.773l-37.69-37.69 40.876-39.77 37.69 37.69-40.876 39.77zM925.333 635.799c36.667 0 66.667-29.982 66.667-66.627v-124.621h-960v124.621c0 36.645 30 66.627 66.667 66.627h826.667zM321.651 635.848c61.317 61.452 153.292 153.631 275.925 276.536 20.417 20.821 54.583 20.821 75.417 0l52.083-52.052c-31.25-31.231-31.25-82.035 0-113.266s82.083-31.231 113.333 0l52.5-52.052c15.694-16.004 30.511-33.7 49.922-60.96-3.038 0.757-6.918 1.795-12.749 1.795-76.275 0-499.13 0-606.431 0z" />
<glyph unicode="&#xe912;" glyph-name="create" d="M752 268h60c16.569 0 30-13.431 30-30s-13.431-30-30-30h-60v-60c0-16.569-13.431-30-30-30s-30 13.431-30 30v60h-60c-16.569 0-30 13.431-30 30s13.431 30 30 30h60v60c0 16.569 13.431 30 30 30s30-13.431 30-30v-60zM319.214 854.993v-184.948c0-11.423-12.182-22.846-24.363-22.846h-188.497v-513.85c0-16.56 13.44-30 30-30h285.646c10.988-6.52 22.578-15.546 22.578-34.582 0-16.566-10.699-34.367-22.578-40.767h-300c-49.62 0-90 40.38-90 90v612.42l197.58 197.58h432.42c49.62 0 90-40.38 90-90v-240c0 0-10.521-20.962-31.787-20.962-27.467 0-35.981 20.962-35.981 20.962v226.993c0 16.56-13.44 30-30 30h-335.018zM257.576 854.789l-138.151-145.598h112.929c12.611 0 25.222 11.48 25.222 22.96v122.637zM722-32c-149.117 0-270 120.883-270 270s120.883 270 270 270c149.117 0 270-120.883 270-270s-120.883-270-270-270zM722 28c115.98 0 210 94.020 210 210s-94.020 210-210 210c-115.98 0-210-94.020-210-210s94.020-210 210-210z" />
<glyph unicode="&#xe913;" glyph-name="crowd" d="M769.273 82.276c0-22.717-8.211-41.133-30.832-41.133s-27.753 18.416-27.753 41.133v82.267c0 68.152-78.349 147.053-146.213 147.053h-327.677c-67.864 0-145.734-78.901-145.734-147.053v-82.267c0-22.717-5.098-41.133-27.719-41.133s-31.345 18.416-31.345 41.133v82.267c0 113.586 91.691 205.666 204.798 205.666h327.677c113.107 0 204.798-92.080 204.798-205.666v-82.267zM400.494 452.508c-113.151 0-204.877 92.116-204.877 205.746s91.727 205.746 204.877 205.746c113.151 0 204.877-92.116 204.877-205.746s-91.727-205.746-204.877-205.746zM992 82.165c0-22.726-6.366-39.302-28.996-39.302s-29.829 16.576-29.829 39.302v82.268c-0.042 56.258-37.954 105.371-92.195 119.436-21.912 5.682-43.236 17.166-37.579 39.17s24.22 30.739 46.132 25.058c90.402-23.441 142.397-89.839 142.467-183.633v-82.298zM676.452 787.302c-23.786 14.199-35.385 15.18-35.385 37.448 5.613 22.016 16.414 29.681 42.299 29.681 90.654-23.309 149.222-100.502 149.222-194.477s-43.993-153.696-143.202-192.559c-19.386 0-38.167 0-47.483 21.144-4.635 31.486 9.317 36.258 34.548 45.886 54.392 13.986 94.608 69.143 94.608 125.529s-40.215 113.362-94.608 127.347zM400.494 507.401c81.072 0 146.793 67.539 146.793 150.853s-65.721 150.853-146.793 150.853c-81.072 0-146.793-67.539-146.793-150.853s65.721-150.853 146.793-150.853z" />
<glyph unicode="&#xe914;" glyph-name="crown" d="M852.020 116l53.808 436.39-238.622-179.928-155.205 332.35-155.205-332.35-238.622 179.928 53.808-436.39h680.039zM692.882 476.638l299.118 225.556-80.627-654.194h-798.745l-80.627 654.194 299.118-225.556 180.882 387.362 180.882-387.362zM237.714 184h548.571v68h-548.571v-68z" />
<glyph unicode="&#xe915;" glyph-name="decorate" d="M811.997 310.659l-211.198 142.047c-12.613 8.489-33.29 17.174-48.226 20.163l-156.463 31.534c-16.942 3.425-26.728-3.232-30.988-7.49-6.638-6.565-9.358-15.843-7.493-25.45 0.997-5.136 3.357-10.302 6.835-15.408l99.864-142.906c8.603-12.291 24.411-27.921 36.892-36.311l310.776-208.99v-69.813c0-16.669-13.41-30.035-30-30.035h-539.993c-16.56 0-30 13.366-30 30.035v576.28h-150.002c-16.56 0-30 13.366-30 30.035v293.614c0 16.519 13.44 30.035 30 30.035h300.005c9.465 0 18.33-4.505 23.985-12.014 0 0 29.694-75.678 81.016-108.126 22.841-17.472 55.816-21.616 90.001 0s81.001 108.126 81.001 108.126c5.655 7.509 14.565 12.014 23.985 12.014h300.005c16.59 0 30-13.516 30-30.035v-293.614c0-16.669-13.41-30.035-30-30.035h-150.002v-263.656zM585.197 401.453l-53.308-79.123 353.787-237.901 53.308 79.123-353.787 237.901zM547.946 425.712c-2.038 0.599-3.95 1.133-5.598 1.468l-122.376 27.104 74.88-107.378 53.094 78.806z" />
<glyph unicode="&#xe916;" glyph-name="discount" d="M981.252 432.216l-485.312 485.73c-7.441 7.447-18.189 10.757-28.11 9.93l-363.777-41.374c-15.709-1.655-28.937-14.067-30.59-30.617l-41.338-364.091c-0.827-10.757 2.48-20.687 9.921-28.134l485.312-485.73c6.614-6.62 15.709-9.93 24.803-9.93s17.362 3.31 24.803 9.93l405.116 405.465c6.614 6.62 9.921 14.895 9.921 24.824-0.827 8.275-4.134 17.377-10.748 23.997v0zM103.226 500.897l36.378 319.407 319.132 36.409 329.88-330.164-355.51-355.816-329.88 330.164zM552.16 51.575l-69.448 69.508 355.51 355.816 69.448-69.508-355.51-355.816zM315.627 635.754c18.014-18.030 28.222-42.069 28.222-67.31 0-25.842-10.208-49.882-28.222-67.911-18.614-18.030-42.033-28.246-67.853-28.246s-49.839 10.217-67.853 28.246c-37.229 37.261-37.229 97.96 0 135.222 18.614 18.030 42.033 28.246 67.853 28.246s49.839-10.217 67.853-28.246zM277.31 538.473c8.407 9.015 13.21 19.832 12.61 32.453 0 12.020-4.804 23.438-13.21 31.852s-19.815 13.222-31.825 13.222c-12.009 0-23.418-4.808-31.825-13.222-17.414-18.030-17.414-46.877 0-64.305 17.414-16.828 47.437-16.828 64.25 0zM627.627 611.754c18.014-18.030 28.222-42.069 28.222-67.31 0-25.842-10.208-49.882-28.222-67.911-18.614-18.030-42.033-28.246-67.853-28.246s-49.839 10.217-67.853 28.246c-37.229 37.261-37.229 97.96 0 135.222 18.614 18.030 42.033 28.246 67.853 28.246s49.839-10.217 67.853-28.246zM589.31 514.473c8.407 9.015 13.21 19.832 12.61 32.453 0 12.020-4.804 23.438-13.21 31.852s-19.815 13.222-31.825 13.222c-12.009 0-23.418-4.808-31.825-13.222-17.414-18.030-17.414-46.877 0-64.305 17.414-16.828 47.437-16.828 64.25 0zM404 784c19.882 0 36-16.118 36-36v-384c0-19.882-16.118-36-36-36s-36 16.118-36 36v384c0 19.882 16.118 36 36 36z" />
<glyph unicode="&#xe917;" glyph-name="dot" d="M512-32c-265.097 0-480 214.903-480 480s214.903 480 480 480c265.097 0 480-214.903 480-480s-214.903-480-480-480zM512 310.857c75.742 0 137.143 61.401 137.143 137.143s-61.401 137.143-137.143 137.143c-75.742 0-137.143-61.401-137.143-137.143s61.401-137.143 137.143-137.143z" />
<glyph unicode="&#xe918;" glyph-name="down" d="M825.936 584.324l-296.392-290.538c-3.849-3.845-9.622-5.786-14.753-5.786s-10.905 1.941-14.753 5.786l-302.604 290.538c-3.849 3.845-13.182 30.339 8.539 47.753s46.842 1.101 50.691-2.743l258.127-251.835 252.088 251.835c3.849 3.845 31.841 20.249 52.723 2.743s10.183-43.908 6.334-47.753z" />
<glyph unicode="&#xe919;" glyph-name="export" d="M716.959 781.492v-546.826c0-147.276-111.075-266.667-258.351-266.667h-373.333c-29.455 0-53.275 14.369-53.275 43.825s23.819 41.017 53.275 41.017h373.333c95.981 12.379 165.333 93.459 165.333 181.825v543.843l-180.954-180.954c-20.828-20.828-46.006-47.949-75.425-27.268s-20.828 54.597 0 75.425l272 266.667c20.828 20.828 40.947 20.828 61.775 0l274.983-266.667c20.828-20.828 20.828-44.467 0-65.295s-54.597-3.69-75.425 17.138l-183.937 183.937z" />
<glyph unicode="&#xe91a;" glyph-name="fast" d="M991.802 863.202c-1.108 34.803-28.59 62.959-63.246 64.798h-26.501c-96.65 0-336.939-15.864-482.805-162.219-25.27-25.509-48.641-52.842-69.927-81.78l-5.79-1.564-265.676-90.941c-22.178-7.35-38.921-25.787-44.156-48.626s1.797-46.762 18.546-63.095l142.080-142.779c-19.687-6.189-37.78-16.639-53.002-30.612-32.97-38.883-48.088-89.905-41.644-140.545-2.687-9.439-6.659-18.462-11.803-26.813-12.005-18.636-14.041-42.025-5.437-62.466s26.733-35.286 48.417-39.647c6.746-1.347 13.609-2.021 20.488-2.011 19.927 0.218 39.47 5.524 56.788 15.417 6.137-4.482 12.99-7.883 20.265-10.055 12.466-3.5 25.359-5.23 38.304-5.139 38.5-0.179 75.469 15.109 102.663 42.454 14.467 14.664 25.365 32.48 31.846 52.062l140.967-141.439c16.342-16.792 40.247-23.786 63.023-18.439s41.106 22.257 48.325 44.581l87.297 262.768c30.314 21.047 58.707 44.751 84.847 70.831 175.485 177.413 166.577 500.957 166.131 515.257zM291.646 595.071c-32.192-58.519-56.599-121.019-72.599-185.904l-119.81 118.871 192.409 67.033zM321.933 125.843c-14.721-14.651-34.72-22.709-55.451-22.344-6.454-0.095-12.892 0.657-19.152 2.234 0 0-2.004 52.732-14.475 65.245 0 0-40.085-67.033-81.729-67.033-2.444-0.245-4.905-0.245-7.349 0 13.765 20.779 21.477 45 22.27 69.937-4.182 30.64 3.817 61.7 22.27 86.472 21.235 15.137 46.781 22.975 72.822 22.344 22.432 1.032 44.337-7.018 60.796-22.344 0 0 46.543-87.813 0-134.512zM589.168 36.467l-128.718 129.149c66.562 10.492 131.189 30.901 191.741 60.553l-63.023-189.702zM777.346 396.208c-96.299-94.96-221.98-154.149-356.314-167.805l-24.274 24.355c-4.333 13.357-9.694 26.355-16.034 38.879-3.062 5.831-6.964 11.176-11.58 15.864-17.415 17.373-39.070 29.854-62.8 36.198l-26.946 27.036c27.525 131.607 92.506 252.378 187.065 347.676 53.855 50.722 119.204 87.531 190.405 107.252-2.075-63.16 20.176-124.695 62.132-171.827 45.43-41.547 105.385-63.393 166.799-60.776h1.782c-20.078-73.463-57.508-140.988-109.121-196.852h-1.113zM904.951 660.763c-58.569-4.245-108.898 10.055-138.74 40.22s-44.539 82.003-42.535 141.662c58.651 11.904 118.319 18.040 178.157 18.322 7.507-0.395 15.028 0.435 22.27 2.458 1.445-67.996-4.982-135.93-19.152-202.438v-0.223z" />
<glyph unicode="&#xe91b;" glyph-name="file" d="M289.622 595.329c-24.95 0-45.145 18.683-45.145 41.828s20.195 41.828 45.145 41.828h269.608c24.95 0 45.145-18.683 45.145-41.828s-20.195-41.828-45.145-41.828h-269.608zM289.622 406.021c-24.95 0-45.145 18.962-45.145 41.828 0 23.145 20.195 41.828 45.145 41.828h447.902c24.92 0 45.145-18.683 45.145-41.828 0-22.866-20.225-41.828-45.145-41.828h-447.902zM291.789 217.015c-24.92 0-45.145 18.683-45.145 41.828s20.225 41.828 45.145 41.828h447.902c24.95 0 45.145-18.683 45.145-41.828s-20.195-41.828-45.145-41.828h-447.902zM125.549 853.481c-8.471 0-15.629-7.15-15.629-15.543v-779.876c0-8.393 7.158-15.543 15.629-15.543h778.215c8.471 0 15.629 7.15 15.629 15.543v779.876c0 8.393-7.158 15.543-15.629 15.543h-778.215zM137.339-32c-58.087 0-105.339 47.318-105.339 105.486v749.028c0 58.168 47.252 105.486 105.339 105.486h749.322c58.087 0 105.339-47.318 105.339-105.486v-749.028c0-58.168-47.252-105.486-105.339-105.486h-749.322z" />
<glyph unicode="&#xe91c;" glyph-name="forbid" d="M196.876 701.413c-55.826-69.332-89.239-157.47-89.239-253.413 0-223.324 181.040-404.364 404.364-404.364 95.943 0 184.081 33.414 253.413 89.239l-568.537 568.537zM258.587 763.124l568.537-568.537c55.826 69.332 89.239 157.47 89.239 253.413 0 223.324-181.040 404.364-404.364 404.364-95.943 0-184.081-33.414-253.413-89.239zM512-32c-265.097 0-480 214.903-480 480s214.903 480 480 480c265.097 0 480-214.903 480-480s-214.903-480-480-480z" />
<glyph unicode="&#xe91d;" glyph-name="heart" d="M731.415 864c-83.406 0-166.268-38.595-218.601-97.038-52.879 58.443-135.74 97.038-219.146 97.038-144.462 0-261.667-118.541-261.667-264.649 0-57.892 17.99-112.476 52.333-158.789 2.726-3.859 5.997-6.616 9.813-9.373l299.827-325.297c27.802-35.286 70.323-56.789 115.57-57.892h5.451c44.702 1.103 87.222 22.605 115.025 57.892v0l299.827 325.297c3.816 2.757 7.087 5.514 9.813 9.373 34.344 46.314 52.333 100.897 52.333 158.789 1.090 146.108-116.115 264.649-260.577 264.649v0zM287.599 783.482c76.747 0 157.416-47.428 183.745-108.408 0.56-1.129 1.12-1.694 1.681-2.823 0.56-1.694 1.681-2.823 2.241-4.517 0.56-1.129 1.681-2.258 2.801-3.388s1.681-2.258 2.801-3.388c1.12-1.129 2.241-1.694 3.361-2.823s2.241-1.694 3.361-2.823c1.12-1.129 2.801-1.694 4.482-2.258 1.12-0.565 1.681-1.129 2.801-1.694h0.56c1.681-0.565 3.361-1.129 4.482-1.694s2.241-0.565 3.921-1.129c1.681-0.565 2.801-0.565 4.482-0.565s2.801-0.565 4.482-0.565c1.681 0 2.801 0 4.482 0.565 1.681 0 2.801 0 4.482 0.565 1.12 0 2.241 0.565 3.921 1.129s3.361 1.129 5.042 1.694h0.56c1.12 0.565 1.681 1.129 2.801 1.694 1.681 0.565 2.801 1.694 4.482 2.258 1.12 0.565 2.241 1.694 3.361 2.823s2.241 1.694 3.361 2.823c1.12 1.129 1.681 2.258 2.801 3.388s1.681 2.258 2.801 3.388c1.12 1.129 1.681 2.823 2.241 4.517 0.56 1.129 1.12 1.694 1.681 2.823 26.329 60.979 106.998 108.408 183.745 108.408 98.595 0 179.264-81.306 179.264-180.68 0-37.265-11.204-72.836-32.492-102.762-0.56-0.565-1.12-1.129-1.681-1.694l-313.711-338.774c-0.56-0.565-1.12-1.129-1.681-2.258-0.56-0.565-1.12-1.129-1.681-1.694-12.885-16.939-31.931-26.537-53.219-27.102-21.288 0-40.334 10.163-53.219 27.102-0.56 0.565-1.12 1.129-1.681 1.694s-1.12 1.129-1.681 2.258l-313.711 338.774c-0.56 0.565-1.12 1.129-1.681 1.694-20.727 30.49-32.492 65.496-32.492 102.762-0.56 99.374 80.108 180.68 178.703 180.68v0z" />
<glyph unicode="&#xe91e;" glyph-name="horn" d="M301.121 694.099l273.571 220.984c37.901 30.616 94.046 3.369 94.046-45.64v-818.27c0-49.009-56.145-76.256-94.046-45.64l-273.571 220.984h-211.236c-31.969 0-57.885 26.168-57.885 58.448v350.687c0 32.28 25.916 58.448 57.885 58.448h211.236zM832.715 625.89c-22.602 22.829-42.051 57.243-19.442 80.065s59.26 22.816 81.862-0.012c135.584-136.943 125.666-351.509-9.918-488.452-22.602-22.829-59.253-22.834-81.862-0.012s6.758 55.003 29.36 77.831c90.389 91.295 90.389 239.285 0 330.581zM359.398 631.515c-12.839-10.944-28.792-16.906-45.235-16.906h-217.234v-308.603h217.234c16.443 0 32.396-5.962 45.235-16.906l244.41-208.326v759.067l-244.41-208.326z" />
<glyph unicode="&#xe91f;" glyph-name="import" d="M306.983 114.508v546.826c0 147.276 111.075 266.667 258.351 266.667h373.333c29.455 0 53.275-14.369 53.275-43.825s-23.819-41.017-53.275-41.017h-373.333c-95.981-12.379-165.333-93.459-165.333-181.825v-543.843l180.954 180.954c20.828 20.828 46.006 47.949 75.425 27.268s20.828-54.597 0-75.425l-272-266.667c-20.828-20.828-40.947-20.828-61.775 0l-274.983 266.667c-20.828 20.828-20.828 44.467 0 65.295s54.597 3.69 75.425-17.138l183.937-183.937z" />
<glyph unicode="&#xe920;" glyph-name="indent" d="M712.262 928h-380.468c-17.822 0-31.77-13.714-31.77-31.238v-43.429h-140.254c-17.822 0-31.77-13.714-31.77-31.238v-822.857c0-17.524 13.948-31.238 31.77-31.238h709.793c17.822 0 31.77 13.714 31.77 31.238v822.857c0 17.524-13.948 31.238-31.77 31.238h-125.531v43.429c0 17.524-13.948 31.238-31.77 31.238v0zM380.754 865.524c140.93 0 143.522 0 284.451 0 8.939 0 15.286-7.584 15.286-15.169v-68.838c0-7.14-6.712-14.279-15.286-14.279h-284.451c-9.371 0-17.19 8.472-17.19 16.943v69.508c0 5.917 2.996 12.832 17.19 11.835zM837.793 764.874c0-350.251 0-360.907 0-711.158 0-15.562-8.479-23.24-23.563-23.24-294.477 0-304.767 0-599.244 0-13.564 0-23.445 7.83-23.445 23.24v717.85c0 9.646 9.13 19.291 18.261 19.291h90.223v-54.857c0-17.524 13.948-31.238 31.77-31.238h380.468c17.822 0 31.77 13.714 31.77 31.238v54.857h70.197c14.462 0 23.563-11.605 23.563-25.983zM751.006 387.048h-457.956c-17.822 0-31.77-13.714-31.77-31.238s13.948-31.238 31.77-31.238h457.956c17.822 0 31.77 13.714 31.77 31.238s-13.948 31.238-31.77 31.238zM522.415 236.19h-229.365c-17.822 0-31.77-13.714-31.77-31.238s13.948-31.238 31.77-31.238h228.591c17.822 0 31.77 13.714 31.77 31.238s-13.948 31.238-30.995 31.238zM261.28 507.429c0-17.524 13.948-31.238 31.77-31.238h457.956c17.822 0 31.77 13.714 31.77 31.238s-13.948 31.238-31.77 31.238h-457.956c-17.822 0-31.77-14.476-31.77-31.238z" />
<glyph unicode="&#xe921;" glyph-name="integral" d="M512 404.364c188.125 0 376.875 36.818 480 115.909v-115.909c0-96.136-215-174.545-480-174.545s-480 78.409-480 174.545v115.909c103.125-79.091 291.875-115.909 480-115.909zM512 142.545c188.125 0 376.875 36.818 480 115.909v-115.909c0-96.136-215-174.545-480-174.545s-480 78.409-480 174.545v115.909c103.125-79.091 291.875-115.909 480-115.909zM512 928c265 0 480-78.409 480-174.545v-87.273c0-96.136-215-174.545-480-174.545s-480 78.409-480 174.545v87.273c0 96.136 215 174.545 480 174.545z" />
<glyph unicode="&#xe922;" glyph-name="issue-not" d="M907.832 406.225l53.717-53.722c40.774-40.77 29.661-109.357-21.932-135.156l-441.332-220.661-4.001-4.001c-32.904-32.904-86.447-32.902-119.347 0l-119.347 119.346c-10.986 10.984-10.976 28.806 0 39.782 10.997 10.995 10.993 28.787 0 39.782-10.997 10.995-28.789 10.995-39.782 0-10.984-10.984-28.806-10.978-39.782 0l-119.349 119.346c-32.902 32.904-32.902 86.443 0 119.347l473.034 473.036c32.902 32.902 86.443 32.904 119.347 0l119.349-119.349c10.986-10.986 10.986-28.796 0-39.782-10.967-10.967-10.967-28.813 0-39.782 10.969-10.967 28.815-10.967 39.782 0 10.986 10.986 28.798 10.986 39.782 0l119.349-119.349c32.906-32.904 32.906-86.445-0.002-119.347l-59.486-59.488zM457.049 49.95l452.104 453.125c10.482 10.505 10.482 27.6 0 38.107l-98.288 98.508c-29.38-14.094-66.54-9.523-91.824 15.818-25.32 25.375-29.825 62.629-15.782 92.031l-98.286 98.51c-10.482 10.507-27.538 10.505-38.022 0l-452.104-453.126c-10.482-10.505-10.482-27.6 0-38.107l98.286-98.506c29.373 14.094 66.538 9.528 91.826-15.818 25.302-25.357 29.839-62.61 15.782-92.033l98.286-98.508c10.482-10.505 27.538-10.507 38.022 0zM902.365 268.487c16.175 8.088 19.674 29.598 6.881 42.391l-50.551 50.549-229.556-229.556 273.226 136.615zM582.773 880.725c6.237 23.279 30.165 37.093 53.443 30.856 24.615-14.596 37.093-30.165 30.856-53.443l-225.844-842.863c-6.237-23.279-30.165-37.093-53.443-30.856s-37.093 30.165-30.856 53.443l225.844 842.863z" />
<glyph unicode="&#xe923;" glyph-name="issue" d="M907.832 406.225l53.717-53.722c40.774-40.77 29.661-109.357-21.932-135.156l-441.332-220.661-4.001-4.001c-32.904-32.904-86.447-32.902-119.347 0l-119.347 119.346c-10.986 10.984-10.976 28.806 0 39.782 10.997 10.995 10.993 28.787 0 39.782-10.997 10.995-28.789 10.995-39.782 0-10.984-10.984-28.806-10.978-39.782 0l-119.349 119.346c-32.902 32.904-32.902 86.443 0 119.347l473.034 473.036c32.902 32.902 86.443 32.904 119.347 0l119.349-119.349c10.986-10.986 10.986-28.796 0-39.782-10.967-10.967-10.967-28.813 0-39.782 10.969-10.967 28.815-10.967 39.782 0 10.986 10.986 28.798 10.986 39.782 0l119.349-119.349c32.906-32.904 32.906-86.445-0.002-119.347l-59.486-59.488zM457.049 49.95l452.104 453.125c10.482 10.505 10.482 27.6 0 38.107l-98.288 98.508c-29.38-14.094-66.54-9.523-91.824 15.818-25.32 25.375-29.825 62.629-15.782 92.031l-98.286 98.51c-10.482 10.507-27.538 10.505-38.022 0l-452.104-453.126c-10.482-10.505-10.482-27.6 0-38.107l98.286-98.506c29.373 14.094 66.538 9.528 91.826-15.818 25.302-25.357 29.839-62.61 15.782-92.033l98.286-98.508c10.482-10.505 27.538-10.507 38.022 0zM902.365 268.487c16.175 8.088 19.674 29.598 6.881 42.391l-50.551 50.549-229.556-229.556 273.226 136.615z" />
<glyph unicode="&#xe924;" glyph-name="leaf" d="M929.061 928c-180.483 0-616.368-30.857-790.041-288-91.944-133.714-98.755-305.143-23.837-514.286l3.405-3.429c-27.243-68.571-37.459-113.143-37.459-113.143-3.405-17.143 6.811-37.714 27.243-41.143h6.811c17.027 0 30.648 10.286 34.053 27.429 0 3.429 88.539 356.571 395.020 562.286 17.027 10.286 20.432 30.857 10.216 48s-30.648 20.571-47.675 10.286c-173.673-116.571-282.644-274.286-343.94-401.143-44.27 157.714-34.053 288 37.459 387.429 127.68 186.399 419.921 240.251 615.899 251.914 13.099 0.78 37.343 0 20.711-26.877-35.932-66.005-71.322-173.708-71.322-345.038 0-106.286-30.648-188.571-88.539-243.429-95.35-89.143-248.59-96-364.372-89.143-20.432 0-34.053-13.714-37.459-30.857 0-17.143 13.621-34.286 30.648-37.714 23.837-3.429 47.675-3.429 71.512-3.429 115.782 0 248.59 24 343.94 109.714 74.918 68.571 112.376 168 112.376 294.857 0 312 115.782 380.571 115.782 380.571 10.216 6.857 17.027 24 13.621 37.714-3.405 17.143-17.027 27.429-34.053 27.429z" />
<glyph unicode="&#xe925;" glyph-name="left" d="M616.324 134.176l-290.538 296.392c-3.845 3.849-5.786 9.622-5.786 14.753s1.941 10.905 5.786 14.753l290.538 302.604c3.845 3.849 30.339 13.182 47.753-8.539s1.101-46.842-2.743-50.691l-251.835-258.127 251.835-252.088c3.845-3.849 20.249-31.841 2.743-52.723s-43.908-10.183-47.753-6.334z" />
<glyph unicode="&#xe926;" glyph-name="lightning" d="M537.944 828.096l-333.083-419.819 321.861-0.29-36.257-359.991 328.738 476.687-328.738 0.261 47.478 303.151zM444.816-12.389c-11.612 12.363-17.326 28.655-16.067 45.921l32.748 311.318h-271.996c-23.716 0-44.851 13.186-55.204 34.38-10.445 21.255-7.741 45.982 6.943 64.558l360.294 461.842c23.255 29.417 71.117 29.599 95.109 1.858 11.674-13.521 16.589-30.909 13.824-48.936l-34.085-268.959h258.179c22.917 0 43.776-12.577 54.405-32.736 10.66-20.311 9.124-44.582-4.086-63.34l-344.527-499.328c-11.704-16.688-29.921-26.189-49.982-26.189-17.265 0-33.884 7.126-45.558 19.611z" />
<glyph unicode="&#xe927;" glyph-name="man" d="M891.307 82.416c0-22.719-8.144-41.136-30.583-41.136s-27.528 18.417-27.528 41.136v82.272c0 68.156-77.715 147.063-145.030 147.063h-325.025c-67.315 0-144.555-78.906-144.555-147.063v-82.272c0-22.719-5.057-41.136-27.495-41.136s-31.091 18.417-31.091 41.136v82.272c0 113.594 90.949 205.68 203.141 205.68h325.025c112.192 0 203.141-92.086 203.141-205.68v-82.272zM525.653 452.64c-112.192 0-203.141 92.086-203.141 205.68s90.949 205.68 203.141 205.68c112.192 0 203.141-92.086 203.141-205.68s-90.949-205.68-203.141-205.68zM525.653 507.367c81.935 0 148.356 67.584 148.356 150.953s-66.421 150.953-148.356 150.953c-81.935 0-148.356-67.584-148.356-150.953s66.421-150.953 148.356-150.953z" />
<glyph unicode="&#xe928;" glyph-name="management" d="M260.48 608.284c-8.837 0-16-7.163-16-16v-75.425c0-8.837 7.163-16 16-16h503.040c8.837 0 16 7.163 16 16v75.425c0 8.837-7.163 16-16 16h-503.040zM260.48 341.002c-8.837 0-16-7.163-16-16v-75.425c0-8.837 7.163-16 16-16h343.040c8.837 0 16 7.163 16 16v75.425c0 8.837-7.163 16-16 16h-343.040zM512 820.575c-14.507 0-26.88-5.115-37.12-15.346s-15.36-22.593-15.36-37.087c0-14.494 5.12-27.282 15.36-38.366s22.613-16.625 37.12-16.625c14.507 0 26.88 5.542 37.12 16.625s15.36 23.872 15.36 38.366c0 14.494-5.12 26.856-15.36 37.087s-22.613 15.346-37.12 15.346zM884.48 820.575c29.013 0 54.187-10.657 75.52-31.972s32-46.465 32-75.453v-637.726c0-28.988-10.667-54.138-32-75.453s-46.507-31.972-75.52-31.972h-744.96c-29.013 0-54.187 10.657-75.52 31.972s-32 46.465-32 75.453v637.726c0 28.988 10.667 54.138 32 75.453s46.507 31.972 75.52 31.972h222.72c11.093 31.545 30.080 57.336 56.96 77.371s57.813 30.053 92.8 30.053c34.987 0 65.92-10.018 92.8-30.053s45.867-45.826 56.96-77.371h222.72z" />
<glyph unicode="&#xe929;" glyph-name="member" d="M781.238 286.84c4.34-21.86 7.62-44.117 9.99-66.151-7.87-15.318-17.746-30.010-29.629-44.078-2.199-3.288-4.948-6.028-8.246-8.221-7.696-6.577-14.568-5.206-20.615 4.11-4.948 9.317-8.521 17.263-10.72 23.84-2.749 9.317-9.071 42.747-18.966 100.291-3.298 20.826-8.246 36.445-14.843 46.857-9.895 14.797-23.639 20.826-41.231 18.085-9.895-1.096-23.089-8.495-39.582-22.196l-67.618-58.366 17.317-22.196 23.089 14.797c5.497 2.74 10.17 2.74 14.018 0 4.948-4.932 8.246-8.769 9.895-11.509 5.497-10.413 9.621-19.455 12.369-27.128 12.644-43.295 23.089-80.014 31.335-110.156 5.497-21.374 13.194-38.637 23.089-51.79 14.843-20.826 34.359-26.854 58.548-18.085 17.592 6.028 35.733 18.085 54.425 36.171 19.241 17.537 42.605 45.213 70.092 83.028 17.592 24.662 31.61 48.501 42.055 71.519 12.644 27.95 16.217 54.53 10.72 79.74-3.848 18.633-15.118 31.238-33.809 37.815-8.796 3.836-21.028 4.658-36.695 2.466s-29.274-7.398-40.818-15.619c-21.99-16.441-36.050-33.704-43.747-63.299-1.619-4.503 2.637-4.503 4.32-3.96 8.935 2.886 17.353 4.23 25.257 4.032zM687.711-30.302c-6.080-1.118-12.296-1.698-18.615-1.698h-509.915c-69.86 0-127.18 70.833-127.18 157.738 0 156.548 35.783 383.214 192.221 383.214 48.364-47.024 114.044-76.191 186.889-76.191s138.525 29.167 186.889 76.191c93.938 0 146.554-81.731 173.603-180.934 12.245 30.105 30.77 54.431 55.576 72.977 16.717 11.904 36.42 19.443 59.108 22.618s40.4 1.984 53.137-3.571c27.066-9.523 43.386-27.776 48.958-54.758 7.961-36.506 2.786-74.995-15.523-115.468-15.125-33.331-35.425-67.852-60.899-103.564-39.803-54.758-73.636-94.835-101.498-120.23-27.066-26.189-53.336-43.648-78.81-52.377-16.071-5.826-30.718-7.141-43.94-3.945zM640.393 699.428c0-126.191-102.7-228.572-229.283-228.572s-229.283 102.381-229.283 228.572c0 126.191 102.7 228.572 229.283 228.572s229.283-102.381 229.283-228.572z" />
<glyph unicode="&#xe92a;" glyph-name="memorial" d="M954.5 268c-20.711 0-37.5 16.789-37.5 37.5v397.5c0 41.355-33.645 75-75 75h-48.75v-37.5c0-20.711-16.789-37.5-37.5-37.5s-37.5 16.789-37.5 37.5v37.5h-170.625v-37.5c0-20.711-16.789-37.5-37.5-37.5s-37.5 16.789-37.5 37.5v37.5h-168.75v-37.5c0-20.711-16.789-37.5-37.5-37.5s-37.5 16.789-37.5 37.5v37.5h-46.875c-41.355 0-75-33.645-75-75v-585c0-41.355 33.645-75 75-75h660c41.355 0 75 33.645 75 75 0 20.711 16.789 37.5 37.5 37.5s37.5-16.789 37.5-37.5c0-82.71-67.29-150-150-150h-660c-82.71 0-150 67.29-150 150v585c0 82.71 67.29 150 150 150h46.875v37.5c0 20.711 16.789 37.5 37.5 37.5s37.5-16.789 37.5-37.5v-37.5h168.75v37.5c0 20.711 16.789 37.5 37.5 37.5s37.5-16.789 37.5-37.5v-37.5h170.625v37.5c0 20.711 16.789 37.5 37.5 37.5s37.5-16.789 37.5-37.5v-37.5h48.75c82.71 0 150-67.29 150-150v-397.5c0-20.711-16.789-37.5-37.5-37.5zM715.092 424.971c8.505-26.267-0.645-54.666-22.77-70.671l-51.81-37.477 19.768-60.576c8.415-25.785-0.669-53.856-22.605-69.849-11.038-8.048-23.991-12.075-36.945-12.075-12.874 0-25.747 3.977-36.748 11.932l-51.982 37.616-51.981-37.611c-22.073-15.966-51.686-15.909-73.697 0.139-21.936 15.994-31.020 44.062-22.605 69.848l19.768 60.576-51.81 37.477c-22.125 16.005-31.275 44.404-22.772 70.669 8.456 26.113 32.376 43.656 59.524 43.656h64.579l19.423 59.904c8.445 25.877 32.376 43.221 59.571 43.221 27.193 0 51.124-17.342 59.548-43.153l19.446-59.972h64.579c27.148 0 51.066-17.542 59.52-43.654zM628.689 373.811l44.671 32.316h-54.905c-42.111 0-77.452 24.911-90.037 63.459l-16.417 50.642-16.386-50.534c-12.613-38.655-47.954-63.566-90.068-63.566h-54.905l44.677-32.319c33.391-24.151 47.245-66.679 34.474-105.822l-16.25-49.797 42.891 31.035c16.273 11.771 35.486 17.988 55.569 17.988s39.296-6.217 55.563-17.982l42.899-31.043-16.25 49.797c-12.772 39.146 1.080 81.674 34.476 105.828z" />
<glyph unicode="&#xe92b;" glyph-name="message" d="M240 448h544c8.837 0 16-7.163 16-16v-64c0-8.837-7.163-16-16-16h-544c-8.837 0-16 7.163-16 16v64c0 8.837 7.163 16 16 16zM240 704h544c8.837 0 16-7.163 16-16v-64c0-8.837-7.163-16-16-16h-544c-8.837 0-16 7.163-16 16v64c0 8.837 7.163 16 16 16zM117.063 928c-46.882 0-85.063-36.314-85.063-81.028v-606.885c0-44.96 38.181-81.275 85.063-81.275h54.684l-6.611-153.758c0-14.328 8.166-27.421 20.974-33.597 4.934-2.47 10.232-3.458 15.482-3.458 8.361 0 16.624 2.964 23.283 8.399l263.818 182.414h418.244c46.906 0 85.063 36.314 85.063 81.275v606.885c0 44.713-38.157 81.028-85.063 81.028h-789.873z" />
<glyph unicode="&#xe92c;" glyph-name="modify" d="M68.269 40.453c-20.069 0-36.269-16.181-36.269-36.226s16.2-36.226 36.269-36.226h887.463c20.069 0 36.269 16.181 36.269 36.226s-16.2 36.226-36.269 36.226h-887.463zM106.385 325.434l402.838 404.287 103.366-103.608-403.321-403.562h-102.883v102.883zM619.592 840.574l103.849-103.849-59.411-59.411-103.608 103.608 59.17 59.653zM70.158 150.098h154.083c9.66 0 18.838 3.864 25.6 10.626l550.4 550.4c6.762 6.762 10.626 16.181 10.626 25.6 0 9.66-3.864 18.838-10.626 25.6l-155.049 155.049c-6.762 6.762-15.94 10.626-25.6 10.626s-18.838-3.864-25.6-10.626l-549.434-551.366c-6.762-7.004-10.626-16.181-10.626-25.6v-154.083c0-20.045 16.181-36.226 36.226-36.226z" />
<glyph unicode="&#xe92d;" glyph-name="operator" d="M512.001 928c-224.204 0-408.263-175.032-422.793-395.62h-57.208v-281.264h170.042c14.265-158.487 147.82-283.116 309.959-283.116s295.694 124.628 309.957 283.116h170.042v281.264h-57.206c-14.531 220.589-198.591 395.62-422.793 395.62zM200.758 307.368h-112.506v168.758h112.506v-168.758zM766.99 279.241c0-30.203-5.291-59.186-14.972-86.096h-141.662c-11.612 32.762-42.896 56.297-79.588 56.297h-37.532c-46.551 0-84.424-37.873-84.424-84.424s37.873-84.424 84.424-84.424h37.532c36.692 0 67.976 23.537 79.588 56.297h113.108c-45.859-67.905-123.533-112.641-211.461-112.641-140.601 0-254.989 114.388-254.989 254.989v225.014c0 1.074 0.028 2.141 0.041 3.212 35.314-12.773 72.925-19.448 110.666-19.448 78.085 0 152.173 27.533 210.917 77.953 47.874-26.507 101.674-40.421 156.895-40.421 10.161 0 20.333 0.48 30.437 1.421 0.664-7.487 1.024-15.060 1.024-22.718v-225.012h-0.004zM558.94 165.020c0-15.533-12.638-28.172-28.172-28.172h-37.534c-15.533 0-28.172 12.638-28.172 28.172s12.638 28.172 28.172 28.172h37.532c15.533-0.002 28.174-12.639 28.174-28.172zM264.328 564.934c27.298 111.401 127.978 194.309 247.673 194.309 113.321 0 209.597-74.312 242.699-176.758-6.373-0.45-12.771-0.682-19.166-0.682-51.728 0-101.935 14.762-145.193 42.69l-18.891 12.197-16.056-15.744c-50.423-49.446-117.073-76.676-187.673-76.676-36.066 0-70.748 6.96-103.393 20.666zM512.001 815.494c-162.139 0-295.694-124.628-309.957-283.116h-56.471c14.413 189.548 173.252 339.37 366.428 339.37s352.015-149.822 366.428-339.37l-56.471 0.002c-14.263 158.487-147.82 283.114-309.957 283.114zM935.75 307.368h-112.506v168.758h112.506v-168.758z" />
<glyph unicode="&#xe92e;" glyph-name="plus" d="M550.064 409.936l-0.004-243.87c0.018-21.015-17.050-38.083-38.065-38.065-10.517 0-20.010 4.253-26.902 11.145s-11.163 16.403-11.163 26.92l0.004 243.87-243.87-0.004c-10.517 0-20.010 4.253-26.902 11.145s-11.163 16.403-11.163 26.92c-0.018 21.015 17.050 38.083 38.065 38.065l243.87 0.004 0.004 243.87c-0.018 21.015 17.050 38.083 38.065 38.065 21.033 0 38.065-17.031 38.064-38.064l-0.004-243.87 243.87 0.004c21.033 0 38.065-17.031 38.064-38.064 0.018-21.015-17.050-38.083-38.065-38.065l-243.87-0.004z" />
<glyph unicode="&#xe92f;" glyph-name="popcorn" d="M944.203 538.327c-2.801 3.389-5.935 6.494-9.355 9.27 17.151 40.17 20.493 72.836 9.578 98.218-3.517 8.282-8.666 15.786-15.147 22.071 7.322 42.723-6.041 86.371-36.085 117.862-23.381 23.024-57.966 30.821-89.098 20.085-5.37 29.403-22.682 55.334-47.89 71.732-41.214 27.154-94.596 28.102-136.766 2.428-26.124 30.014-63.981 47.489-103.977 47.996s-78.292-16.004-105.181-45.347c-31.63 16.774-81.97 27.369-153.694-1.104-36.717-12.2-65.824-40.31-79.075-76.367-7.92-25.325-8.306-52.375-1.114-77.912-5.786-1.814-11.38-4.18-16.706-7.063-29.823-18.11-50.412-47.989-56.577-82.106-15.815-62.904-2.45-101.087 12.696-122.938-2.753-10.718-2.753-21.948 0-32.666l111.373-463.501c7.127-29.883 34.053-50.989 65.042-50.985h490.040c30.989-0.004 57.914 21.102 65.042 50.985l111.373 463.501c4.035 19.828-1.298 40.395-14.478 55.841zM166.821 621.757c2.579 15.65 10.91 29.801 23.388 39.729 4.635 2.531 9.855 3.824 15.147 3.752 2.443 0.258 4.907 0.258 7.351 0 13.232-4.327 27.785-0.062 36.514 10.7s9.801 25.763 2.689 37.636c-12.918 21.334-17.364 46.667-12.474 71.070 7.431 17.33 22.307 30.45 40.54 35.756 81.525 32.224 112.932-5.739 115.828-9.711 7.927-12.498 23.247-18.286 37.559-14.19s24.159 17.086 24.141 31.847c0 3.311 1.559 33.107 55.686 33.107 48.781 0 55.241-23.616 55.686-33.107-0.002-13.165 7.869-25.080 20.045-30.346s26.345-2.884 36.087 6.068c2.005 1.986 52.122 47.012 91.548 19.202 10.613-7.046 17.963-17.986 20.428-30.407s-0.156-25.304-7.286-35.808c-8.689-14.303-5.271-32.78 7.974-43.099s32.17-9.253 44.149 2.487c0 0 44.549 41.274 64.151 22.071 28.957-28.693 14.256-76.147 14.256-76.367-2.914-8.544-2.185-17.896 2.019-25.894s11.52-13.952 20.255-16.483c0-1.986 5.346-16.774-13.587-56.282h-133.647c-28.788 0.042-54.366-18.189-63.482-45.247-24.505-53.26-78.138-87.438-137.211-87.438s-112.706 34.177-137.211 87.438c-9.444 26.468-34.705 44.158-63.037 44.143h-155.922c-4.794-0.007-9.573-0.525-14.256-1.545-4.47 20.26-3.159 41.354 3.787 60.917h-1.114zM780.485 33.773h-490.040l-111.373 463.501h155.922c33.721-80.192 112.796-132.429 200.471-132.429s166.75 52.236 200.471 132.429h155.922l-111.373-463.501zM379.543 574.524c-14.135 0.323-26.535 9.428-30.962 22.734-9.125 26.6-5.947 55.835 8.687 79.899 15.882 20.332 40.933 31.502 66.824 29.796 24.723 0.336 49.142-5.428 71.056-16.774 20.605 39.332 62.474 63.137 107.141 60.917 32.769 0.924 64.474-11.569 87.654-34.538s35.788-54.385 34.856-86.855c0-18.285-14.959-33.107-33.412-33.107s-33.412 14.823-33.412 33.107c0 30.474-24.932 55.179-55.686 55.179s-55.686-24.704-55.686-55.179c-0.696-14.874-11.327-27.457-25.981-30.753s-29.726 3.508-36.833 16.627c-13.718 18.426-36.273 28.256-59.25 25.824-4.597 0.455-9.23-0.386-13.365-2.428-2.019-6.621-2.019-13.685 0-20.306 3.623-10.154 2.035-21.42-4.257-30.202s-16.503-13.982-27.372-13.94z" />
<glyph unicode="&#xe930;" glyph-name="preferential" d="M929.231 745.088v117.083h-830.769v-117.083c43.955-15.249 75.524-56.308 75.524-104.455s-31.569-89.206-75.524-104.455v-496.863h245.455v18.462c0 91.606 76.242 166.154 169.93 166.154s169.93-74.548 169.93-166.154v-18.462h245.455v496.863c-43.955 15.249-75.524 56.308-75.524 104.455s31.569 89.206 75.524 104.455zM992 672h-36.923c-20.382 0-36.923-16.384-36.923-36.571s16.542-36.571 36.923-36.571h36.923v-630.857h-387.692v91.429c0 50.432-41.391 91.429-92.308 91.429s-92.308-40.997-92.308-91.429v-91.429h-387.692v630.857h36.923c20.382 0 36.923 16.384 36.923 36.571s-16.542 36.571-36.923 36.571h-36.923v256h960v-256zM253.538 598.853v73.143h110.769v-73.143h-110.769zM438.154 598.853v73.143h147.692v-73.143h-147.692zM659.692 598.853v73.143h110.769v-73.143h-110.769z" />
<glyph unicode="&#xe931;" glyph-name="present" d="M612 80.728v566.703h-200v-566.703c0-21.919 18.125-32.566 40-32.566h120c21.875 0 40 10.647 40 32.566zM327 727.594h121.875l-78.75 100.829c-6.875 8.141-21.875 19.414-43.125 19.414-33.125 0-60-26.93-60-60.122s26.875-60.122 60-60.122zM757 787.716c0 33.192-26.875 60.122-60 60.122-21.25 0-36.25-11.273-43.125-19.414l-78.125-100.829h121.25c33.125 0 60 26.93 60 60.122zM992 627.391v-200.406c0-11.273-8.75-20.041-20-20.041h-60v-378.823c0-33.192-26.875-60.122-60-60.122h-680c-33.125 0-60 26.93-60 60.122v378.823h-60c-11.25 0-20 8.768-20 20.041v200.406c0 11.273 8.75 20.041 20 20.041h275c-77.5 0-140 62.627-140 140.284s62.5 140.284 140 140.284c41.875 0 80.625-17.536 105-48.223l80-103.334 80 103.334c24.375 30.687 63.125 48.223 105 48.223 77.5 0 140-62.627 140-140.284s-62.5-140.284-140-140.284h275c11.25 0 20-8.768 20-20.041z" />
<glyph unicode="&#xe932;" glyph-name="purse" d="M862.7 304.96l-239.4 383.040h8.7c16.56 0 30 13.44 30 30s-13.44 30-30 30h-3.96l88.92 133.38c6.18 9.18 6.72 21 1.44 30.78-5.16 9.72-15.3 15.84-26.4 15.84h-360c-11.1 0-21.24-6.12-26.4-15.84-5.28-9.78-4.68-21.6 1.44-30.84l88.92-133.32h-3.96c-16.56 0-30-13.44-30-30s13.44-30 30-30h8.7l-239.46-383.040c-21.78-38.64-33.24-82.62-33.24-126.96 0-115.8 94.2-210 210-210h348c115.8 0 210 94.2 210 210 0 44.34-11.46 88.32-33.3 126.96zM388.1 868h247.86l-80.040-120h-87.84l-79.98 120zM686 28h-348c-82.74 0-150 67.26-150 150 0 34.080 8.82 67.86 25.56 97.56l255.96 412.44h84.96l255.96-412.44c16.74-29.7 25.56-63.48 25.56-97.56 0-82.74-67.26-150-150-150zM595.993 307.421c15.14 0 27.428 12.288 27.428 27.428s-12.288 27.428-27.428 27.428h-43.5l62.864 62.864c10.752 10.752 10.752 28.086 0.055 38.837-10.697 10.697-28.086 10.697-38.783 0l-62.919-62.919-62.864 62.919c-10.697 10.697-28.086 10.697-38.783 0s-10.697-28.086 0-38.783l62.864-62.919h-43.5c-15.14 0-27.428-12.288-27.428-27.428s12.288-27.428 27.428-27.428h54.855v-54.855h-54.855c-15.14 0-27.428-12.288-27.428-27.428s12.288-27.428 27.428-27.428h54.855v-82.283c0-15.14 12.288-27.428 27.428-27.428s27.428 12.288 27.428 27.428v82.283h54.855c15.14 0 27.428 12.288 27.428 27.428s-12.288 27.428-27.428 27.428h-54.855v54.855h54.855z" />
<glyph unicode="&#xe933;" glyph-name="right" d="M375.676 134.176c-3.845-3.849-30.247-14.548-47.753 6.334s-1.101 48.874 2.743 52.723l251.835 252.088-251.835 258.127c-3.845 3.849-20.158 28.97-2.743 50.691s43.908 12.388 47.753 8.539l290.538-302.604c3.845-3.849 5.786-9.622 5.786-14.753s-1.941-10.905-5.786-14.753l-290.538-296.392z" />
<glyph unicode="&#xe934;" glyph-name="search" d="M801.531 226.351l176.41-176.41c18.745-18.745 18.745-49.137 0-67.882s-49.137-18.745-67.882 0l-176.41 176.41c-73.904-59.118-167.648-94.469-269.649-94.469-238.587 0-432 193.413-432 432s193.413 432 432 432c238.587 0 432-193.413 432-432 0-102.001-35.351-195.745-94.469-269.649zM705.987 262.893c58.214 60.417 94.013 142.581 94.013 233.107 0 185.568-150.432 336-336 336s-336-150.432-336-336c0-185.568 150.432-336 336-336 90.525 0 172.689 35.8 233.107 94.013 1.263 1.643 2.647 3.223 4.152 4.728s3.085 2.889 4.728 4.152z" />
<glyph unicode="&#xe935;" glyph-name="setting" d="M65.873 547.31c-19.002 0-33.873-14.897-33.873-33.931v-132.414c0-19.034 14.871-33.931 33.873-33.931h61.962c9.088-35.586 23.133-69.517 42.134-100.966l-42.96-43.034c-13.219-13.241-13.219-34.759 0-48l93.356-93.517c13.219-13.241 34.699-13.241 47.917 0l43.787 43.862c31.394-18.207 65.267-32.276 100.792-41.379v-62.069c0-19.034 14.871-33.931 33.873-33.931h132.186c19.002 0 33.873 14.897 33.873 33.931v62.897c35.525 9.103 68.571 23.172 99.966 41.379l44.613-44.69c13.219-13.241 34.699-13.241 47.917 0l93.356 93.517c13.219 13.241 13.219 34.759 0 48l-44.613 44.69c18.176 31.448 32.22 64.552 41.308 100.138h62.788c19.002 0 33.873 14.897 33.873 33.931v132.414c0 19.034-14.871 33.931-33.873 33.931h-62.788c-9.088 35.586-23.133 68.69-41.308 100.138l44.613 44.69c13.219 13.241 13.219 34.759 0 48l-94.182 92.69c-13.219 13.241-34.699 13.241-47.917 0l-43.787-43.862c-31.394 18.207-65.267 32.276-100.792 42.207v62.069c0 19.034-14.871 33.931-33.873 33.931h-132.186c-19.002 0-33.873-14.897-33.873-33.931v-62.069c-35.525-9.103-69.398-23.172-100.792-41.379l-43.787 43.862c-13.219 13.241-34.699 13.241-47.917 0l-93.356-94.345c-13.219-13.241-13.219-34.759 0-48l42.96-43.034c-19.002-31.448-33.046-65.379-42.134-101.793h-61.136zM188.145 507.586c8.262 46.345 26.437 88.552 52.048 126.621 9.088 13.241 7.435 31.448-4.131 43.034l-38.003 38.897 45.439 45.517 38.83-38.897c11.566-11.586 29.742-13.241 42.96-4.138 38.003 26.483 80.964 43.862 126.403 52.138 15.697 3.31 28.090 16.552 28.090 33.103v55.448h64.441v-55.448c0-16.552 11.566-30.621 27.263-33.103 45.439-8.276 87.573-26.483 125.577-52.138 13.219-9.103 31.394-7.448 42.96 4.138l39.656 39.724 45.439-45.517-39.656-39.724c-11.566-11.586-13.219-29.793-4.131-43.034 25.611-38.069 42.96-80.276 52.048-125.793 3.305-15.724 17.349-28.138 33.046-28.138h56.179v-64.552h-56.179c-16.523 0-30.568-11.586-33.046-27.31-8.262-45.517-25.611-87.724-52.048-125.793-9.088-13.241-7.435-31.448 4.131-43.034l39.656-39.724-45.439-45.517-39.656 39.724c-11.566 11.586-29.742 13.241-42.96 4.138-38.003-26.483-80.138-43.862-125.577-52.138-15.697-3.31-27.263-17.379-27.263-33.103v-55.448h-64.441v55.448c0 16.552-11.566 30.621-28.090 33.103-46.265 8.276-88.399 25.655-126.403 52.138-13.219 9.103-31.394 7.448-42.96-4.138l-38.83-38.897-45.439 43.034 38.83 38.897c11.566 11.586 13.219 29.793 4.131 43.034-26.437 38.069-43.787 81.103-52.874 126.621-3.305 15.724-16.523 27.31-33.046 27.31h-54.527v64.552h54.527c15.697 0.828 29.742 12.414 33.046 28.966zM511.174 209.655c128.055 0 232.151 104.276 232.151 232.552s-104.096 232.552-232.151 232.552c-128.055 0-232.151-104.276-232.151-232.552s104.096-232.552 232.151-232.552zM511.174 606.897c90.878 0 164.406-73.655 164.406-164.69s-73.528-164.69-164.406-164.69c-90.878 0-164.406 73.655-164.406 164.69s73.528 164.69 164.406 164.69z" />
<glyph unicode="&#xe936;" glyph-name="shop" d="M982.936 608.55l-1.648 5.778c0 0-0.824 1.651-0.824 2.476l-103.828 288.908c-4.944 13.207-17.305 22.287-32.137 22.287h-665.82c-14.009 0-27.193-9.080-32.137-22.287l-103.004-287.257c-0.824-1.651-0.824-3.302-1.648-4.953l-3.296-9.905c-0.824-2.476-1.648-4.953-1.648-8.255-3.296-12.382-4.944-23.113-4.944-34.669 0-62.734 39.554-116.389 95.588-136.199v-422.631c0-18.985 14.833-33.844 33.785-33.844h714.438c18.953 0 33.785 14.858 33.785 33.844v428.409c48.618 23.938 82.403 73.465 82.403 130.421 0 9.905-1.648 20.636-4.12 31.367-0.824 6.604-2.472 11.556-4.944 16.509v0zM245.087 82.691v334.355c1.648 0 22.976 0.825 44.012 51.178 26.369-32.193 66.747-52.003 111.245-52.003s84.876 20.636 111.245 52.003c26.369-32.193 66.747-52.003 111.245-52.003s84.876 20.636 111.245 52.003c13.535-55.431 64.828-52.829 66.476-52.829v-332.704h-555.466z" />
<glyph unicode="&#xe937;" glyph-name="show" d="M122 688v0c-49.71 0-90-40.29-90-90v-540c0-49.71 40.29-90 90-90h780c49.71 0 90 40.29 90 90v540c0 49.71-40.29 90-90 90h-780zM166.097 616.252h691.805c31.852 0 57.65-25.799 57.65-57.65v-461.203c0-31.852-25.799-57.65-57.65-57.65h-691.805c-31.852 0-57.65 25.799-57.65 57.65v461.203c0 31.852 25.799 57.65 57.65 57.65v0zM182 808h660c16.56 0 30-17.076 30-38.115s-13.44-38.115-30-38.115h-660c-16.56 0-30 17.076-30 38.115s13.44 38.115 30 38.115v0zM272 928h480c16.56 0 30-17.076 30-38.115s-13.44-38.115-30-38.115h-480c-16.56 0-30 17.076-30 38.115s13.44 38.115 30 38.115v0z" />
<glyph unicode="&#xe938;" glyph-name="souvenir" d="M951.7 766.899c0 54.207-38.167 124.273-148.162 124.273-42.276-3.938-118.739-15.066-157.259-32.903l8.771 12.309c8.081 10.286 9.847 24.173 4.599 36.149s-16.663 20.104-29.712 21.157c-13.049 1.053-25.623-5.139-32.729-16.119l-86.29-120.486-67.325 118.355c-9.754 17.060-31.512 22.995-48.597 13.256s-23.029-31.465-13.275-48.526l16.12-28.169c-46.449 26.121-122.084 41.718-175.244 45.685-45.753 0-73.251-22.251-101.699-42.371-28.444-17.745-46.209-48.434-47.412-81.902 0.106-14.953 3.848-29.656 10.905-42.845-30.814-8.398-52.24-36.279-52.39-68.173v-120.486c0-39.22 31.841-71.013 71.118-71.013v-426.079c0-39.22 31.841-71.013 71.118-71.013h675.528c39.277 0 71.118 31.794 71.118 71.013v426.079c39.277 0 71.118 31.794 71.118 71.013v119.776c0 31.561-20.861 59.335-51.205 68.173 7.056 13.189 10.798 27.892 10.905 42.845zM880.582 766.899c-1.319-9.928-7.19-18.677-15.883-23.671-14.237-10.539-31.358-16.485-49.071-17.043h-242.363c48.791 57.571 154.793 91.945 230.273 94.684 61.398-0.71 77.044-36.69 77.044-53.97zM104.303 654.461h378.41v-118.355h-378.41v118.355zM222.833 820.159c75.48-2.739 170.309-37.113 219.1-94.684h-230.953c-44.567 0-64.954 25.565-64.954 40.241s15.409 54.443 76.807 54.443zM175.421 465.092h307.292v-426.079h-307.292v426.079zM850.949 39.013h-297.118v426.079h297.118v-426.079zM922.067 536.106h-368.236v118.355h368.236v-118.355z" />
<glyph unicode="&#xe939;" glyph-name="success" d="M659.491 586.814l-224.216-221.423-61.091 69.843c-13.59 15.535-37.228 17.13-52.788 3.516s-17.13-37.228-3.516-52.788l87.273-99.74c6.782-7.755 16.482-12.368 26.78-12.742 0.474-0.025 0.923-0.025 1.371-0.025 9.824 0 19.275 3.865 26.282 10.772l252.468 249.351c14.687 14.537 14.836 38.225 0.324 52.912s-38.201 14.836-52.887 0.324zM512 42.805c-223.443 0-405.195 181.752-405.195 405.195 0 223.418 181.752 405.195 405.195 405.195 223.418 0 405.195-181.777 405.195-405.195 0-223.443-181.777-405.195-405.195-405.195zM512 928c-264.686 0-480-215.339-480-480s215.314-480 480-480c264.661 0 480 215.339 480 480s-215.339 480-480 480z" />
<glyph unicode="&#xe93a;" glyph-name="tableware" d="M741.093 430.6c54.491 0 114.389 30.101 168.448 84.631 91.684 92.484 108.118 199.363 43.247 265.672-25.628 26.107-60.67 40.592-97.090 40.134v0c-54.708 0-114.172-29.665-167.583-83.759-78.277-78.96-102.28-168.172-67.249-234.044l-97.739-98.591-121.741 122.802 52.762 53.222c12.648 12.774 12.648 33.468 0 46.242l-194.612 196.309c-12.78 12.012-32.695 11.658-45.047-0.802s-12.703-32.549-0.795-45.44l171.691-173.188-29.841-30.101-182.503 184.095c-12.78 12.012-32.695 11.658-45.047-0.802s-12.703-32.549-0.795-45.44l182.503-184.095-29.841-30.101-193.315 195.001c-12.78 12.012-32.695 11.658-45.047-0.802s-12.703-32.549-0.795-45.44l216.236-218.121c12.664-12.758 33.178-12.758 45.842 0l52.762 53.222 121.741-122.802-259.483-261.746c-8.678-8.156-12.25-20.44-9.315-32.033s11.909-20.644 23.401-23.605c11.492-2.961 23.67 0.643 31.756 9.396l259.483 261.746 254.077-256.293c8.086-8.753 20.264-12.357 31.756-9.396s20.466 12.013 23.401 23.605c2.935 11.592-0.637 23.876-9.315 32.033l-254.077 256.293 94.928 95.755c22.719-15.672 49.675-23.898 77.196-23.557v0zM733.957 691.037c39.139 39.48 83.899 65.436 121.741 65.436 19.335 0.174 37.881-7.72 51.248-21.812 43.247-43.624 15.785-113.423-43.247-173.188-39.355-39.698-84.548-65.436-122.606-65.436-18.872-0.431-37.091 6.983-50.383 20.503-42.166 43.624-15.785 114.95 43.247 174.497z" />
<glyph unicode="&#xe93b;" glyph-name="tag" d="M535.954 191.448l309.409-212.933c7.158-7.010 16.107-10.515 25.95-10.515 4.474 0 8.948 0.876 14.317 2.629 13.422 5.258 22.37 18.402 22.37 33.298v888.146c0 20.154-16.107 35.927-36.687 35.927h-706.625c-20.581 0-36.687-15.773-36.687-35.927v-888.146c0-14.897 8.948-27.164 22.37-33.298 14.317-5.258 30.424-2.629 40.267 7.886l345.317 212.933zM833.731 807.65v-680.756c0-21.742-25.629-26.167-38.444-17.508l-234.278 158.298c-7.158 7.010-16.107 10.515-25.95 10.515s-18.791-3.505-25.95-10.515l-270.525-161.523c-12.702-7.584-38.105 0.313-38.105 23.378v680.082c0 20.805 16.373 41.609 38.105 41.609h556.702c23.109 0 38.444-21.79 38.444-43.579z" />
<glyph unicode="&#xe93c;" glyph-name="tips" d="M512-32c-265.097 0-480 214.903-480 480s214.903 480 480 480c265.097 0 480-214.903 480-480s-214.903-480-480-480zM512 46.956c221.491 0 401.044 179.554 401.044 401.044s-179.554 401.044-401.044 401.044c-221.491 0-401.044-179.554-401.044-401.044s179.554-401.044 401.044-401.044zM555.636 273.455c0-24.1-19.537-43.636-43.636-43.636s-43.636 19.537-43.636 43.636v174.545c0 24.1 19.537 43.636 43.636 43.636s43.636-19.537 43.636-43.636v-174.545zM481.144 548.054c-17.041 17.041-17.041 44.67 0 61.711s44.67 17.041 61.711 0c17.041-17.041 17.041-44.67 0-61.711s-44.67-17.041-61.711 0z" />
<glyph unicode="&#xe93d;" glyph-name="trash" d="M736.115 741.679h211.2c24.742 0 44.685-16.466 44.685-41.201s-19.942-41.201-44.685-41.201h-76.8v-556.915c0-74.206-60.173-134.362-134.4-134.362h-448c-74.227 0-134.4 60.156-134.4 134.362v556.915h-76.8c-24.742 0-44.915 16.466-44.915 41.201s20.173 41.201 44.915 41.201h211.2v51.96c0 74.206 60.173 134.362 134.4 134.362h179.2c74.227 0 134.4-60.156 134.4-134.362v-51.96zM655.423 741.679v70.881c0 24.735-20.058 44.787-44.8 44.787h-199.584c-24.742 0-44.8-20.052-44.8-44.787v-70.881h289.184zM792.769 659.277h-560.535v-573.93c0-24.735 20.058-44.787 44.8-44.787h470.935c24.742 0 44.8 20.052 44.8 44.787v573.93zM379.556 479.764c0 24.95 18.683 45.145 41.828 45.145s41.828-20.195 41.828-45.145v-269.608c0-24.95-18.683-45.145-41.828-45.145s-41.828 20.195-41.828 45.145v269.608zM562.991 479.764c0 24.95 18.683 45.145 41.828 45.145s41.828-20.195 41.828-45.145v-269.608c0-24.95-18.683-45.145-41.828-45.145s-41.828 20.195-41.828 45.145v269.608z" />
<glyph unicode="&#xe93e;" glyph-name="trucks" d="M805.134 665.588c0 0-9.185 19.886-30.264 19.886-69.602 0.206-133.141 0-133.141 0v154.223c0 0 0 24.304-19.506 24.304h-565.883c-20.405-1.534-24.341-24.304-24.341-24.304s0-387.23 0-688.519c0-23.169 24.341-23.169 24.341-23.169h132.071c6.476-58.421 56.025-104.008 116.020-104.008s109.541 45.587 116.020 104.008h234.99c6.476-58.421 56.025-104.008 116.020-104.008s109.541 45.587 116.020 104.008h81.916c0 0 22.602 0 22.602 22.875v241.871c0 16.441-22.602 20.931-22.602 20.931l-63.121 11.348-101.143 240.553zM239.568 144.948c0 3.17 0.239 6.285 0.68 9.337 0.27 1.88 0.63 3.726 1.056 5.546 0.039 0.166 0.075 0.333 0.114 0.497 0.426 1.753 0.926 3.476 1.489 5.169 0.060 0.182 0.122 0.361 0.184 0.543 0.589 1.714 1.243 3.398 1.967 5.042 8.752 19.593 26.55 33.826 47.546 37.771 1.972 0.364 3.845 0.627 5.739 0.806 0.14 0.013 0.28 0.021 0.42 0.031 1.871 0.166 3.762 0.263 5.669 0.263s3.796-0.096 5.669-0.263c0.14-0.013 0.28-0.018 0.42-0.031 1.894-0.179 3.767-0.442 5.617-0.785 21.117-3.965 38.916-18.199 47.549-37.529 0.846-1.906 1.497-3.591 2.086-5.304 0.062-0.179 0.122-0.361 0.184-0.543 0.566-1.693 1.064-3.417 1.489-5.169 0.042-0.164 0.075-0.333 0.114-0.497 0.426-1.82 0.789-3.669 1.056-5.546 0.441-3.050 0.68-6.165 0.68-9.337 0-35.844-29.098-65.005-64.865-65.005s-64.865 29.161-64.865 65.005zM411.603 191.212c-0.447 1.249-0.907 2.444-1.376 3.631-15.16 37.625-49.142 64.869-89.955 70.193-0.644 0.085-1.289 0.172-1.936 0.247-0.852 0.097-1.709 0.182-2.568 0.257-0.999 0.092-2.003 0.165-3.010 0.229-0.652 0.040-1.304 0.087-1.958 0.117-1.709 0.080-3.43 0.132-5.158 0.132s-3.45-0.052-5.163-0.13c-0.654-0.030-1.306-0.077-1.958-0.117-1.007-0.065-2.008-0.137-3.010-0.229-0.859-0.077-1.714-0.162-2.568-0.257-0.647-0.075-1.291-0.162-1.936-0.247-40.814-5.324-74.795-32.568-89.675-69.487-0.749-1.895-1.209-3.087-1.639-4.294-0.005-0.015-106.374-0.042-106.374-0.042v609.582h487.095v-609.585h-168.809zM762.762 629.904l77.823-198.917h-198.985v199.279l121.162-0.361zM706.595 144.948c0 3.17 0.239 6.285 0.68 9.337 0.27 1.88 0.63 3.726 1.056 5.546 0.039 0.166 0.075 0.333 0.114 0.497 0.426 1.753 0.926 3.476 1.489 5.169 0.060 0.182 0.122 0.361 0.184 0.543 0.589 1.714 1.243 3.398 1.967 5.042 8.752 19.593 26.55 33.826 47.546 37.771 1.972 0.364 3.845 0.627 5.739 0.806 0.14 0.013 0.28 0.021 0.42 0.031 1.871 0.166 3.762 0.263 5.669 0.263s3.796-0.096 5.669-0.263c0.14-0.013 0.28-0.018 0.42-0.031 1.894-0.179 3.767-0.442 5.617-0.785 21.117-3.965 38.916-18.199 47.549-37.529 0.846-1.906 1.497-3.591 2.086-5.304 0.062-0.179 0.122-0.361 0.184-0.543 0.566-1.693 1.064-3.417 1.489-5.169 0.042-0.164 0.075-0.333 0.114-0.497 0.426-1.82 0.789-3.669 1.056-5.546 0.441-3.050 0.68-6.165 0.68-9.337 0-35.844-29.098-65.005-64.865-65.005s-64.865 29.161-64.865 65.005zM875.776 192.396c-0.094 0.24-0.189 0.483-0.286 0.724-15.2 37.862-49.913 65.801-91.605 71.261-0.658 0.087-1.317 0.176-1.978 0.253-0.87 0.1-1.745 0.187-2.623 0.263-1.021 0.095-2.046 0.169-3.075 0.235-0.666 0.041-1.332 0.090-2.001 0.12-1.745 0.082-3.503 0.136-5.269 0.136s-3.524-0.054-5.274-0.133c-0.669-0.031-1.335-0.079-2.001-0.12-1.028-0.066-2.052-0.141-3.075-0.235-0.878-0.079-1.75-0.166-2.623-0.263-0.661-0.077-1.319-0.166-1.978-0.253-41.692-5.46-76.404-33.399-91.605-71.261-0.097-0.24-0.189-0.483-0.286-0.724-0.48-1.22-0.949-2.442-1.388-3.68-0.005-0.015-19.112-0.043-19.112-0.043v192.527h239.971l53.225-9.231v-183.298h-57.614c-0.457 1.281-0.926 2.506-1.406 3.723z" />
<glyph unicode="&#xe93f;" glyph-name="up" d="M825.936 343.676c3.849-3.845 14.548-30.247-6.334-47.753s-48.874-1.101-52.723 2.743l-252.088 251.835-258.127-251.835c-3.849-3.845-28.97-20.158-50.691-2.743s-12.388 43.908-8.539 47.753l302.604 290.538c3.849 3.845 9.622 5.786 14.753 5.786s10.905-1.941 14.753-5.786l296.392-290.538z" />
<glyph unicode="&#xe940;" glyph-name="wallet" d="M873.728 562.407c-1.657-0.398-3.293-0.586-4.908-0.586-9.475 0-18.059 6.364-20.353 15.825-9.73 39.94-83.707 55.786-111.943 61.396-8.052-15.616-24.326-26.417-43.32-26.417-11.813 0-22.499 4.312-30.933 11.199 2.592-2.575 5.269-5.191 8.222-8.331 3.845-3.161 7.436-6.196 10.644-9.085 0.361-0.293 0.701-0.607 1.041-0.942v0c27.619-26.040 157.705-160.932 204.785-284.624 38.752-101.901 41.514-143.641 40.983-177.678-0.722-46.932-2.634-171.545-225.542-173.931-123.883-1.382-149.143-2.156-348.341 0.754-223.333 3.245-225.287 126.707-226.010 173.178-0.531 34.016 2.188 75.777 41.004 177.678 39.198 102.99 108.458 204.41 205.848 285.629 2.783 2.303 5.694 5.631 8.689 9.859 4.738 9.755 6.969 19.677 7.245 29.578-5.226-1.047-10.432-1.884-15.658-3.035-10.368-2.261-20.672 4.124-23.009 14.339s4.185 20.368 14.553 22.67c5.715 1.256 11.345 2.177 17.039 3.307-11.494 30.039-34.673 58.235-52.625 80.026-3.93 4.731-7.563 9.169-10.793 13.23-23.519 25.078-32.272 65.478-36.011 86.139-0.51 2.847-0.871 4.982-1.169 6.175l-1.508 5.233c-10.495 36.716-10.899 38.14-4.547 46.429 3.633 4.731 9.454 7.578 15.488 7.578 10.644 0 15.828-7.536 19.248-12.518 4.419-6.385 7.755-10.466 9.985-12.141 3.336 0.733 8.498 1.172 14.596 1.172 14.511 0 32.506-2.386 53.347-5.129 22.138-2.931 47.208-6.238 70.238-6.699h0.106c23.667 0 41.238 7.306 59.87 15.072 20.906 8.687 42.788 17.709 69.728 15.825 33.887-2.407 58.106-19.384 79.501-34.351 11.494-8.059 22.35-15.658 33.717-20.43 13.533-5.631 34.503 0.126 49.545 5.108 9.093 3.014 16.253 5.401 23.285 5.401 9.051 0 14.702-3.956 17.825-7.243 15.679-7.934 9.603-24.889 7.521-30.667-1.338-3.726-3.378-9.441-6.289-18.253-10.474-31.902-61.145-66.483-114.343-107.783-4.823-3.747-8.498-6.573-10.495-8.248-2.762-2.303-8.222-7.494-13.321-14.988 8.923 10.069 21.904 16.558 36.542 16.558 16.614 0 31.231-8.227 40.048-20.744 15.403 10.822 41.662 37.323 43.957 48.041 2.316 10.843 12.981 18.609 24.114 16.809 11.090-1.842 18.845-11.262 17.4-22.252-2.146-16.474-20.204-40.045-40.366-58.696 42.555-11.471 98.664-34.602 110.838-84.548 2.698-11.094-4.228-22.231-15.467-24.889v0zM637.955 751.925c51.863 40.697 80.511 61.764 85.143 76.033 0.107 0.302 0.214 0.603 0.303 0.923-16.284-5.307-40.781-9.531-59.256-1.739-12.774 5.395-23.749 13.187-34.385 20.712-15.874 11.235-30.875 21.866-50.241 23.25-15.144 1.065-28.149-4.455-43.614-10.968-17.086-7.17-36.434-15.317-61.252-15.317l-2.263 0.018c-21.13 0.444-43.133 3.372-62.534 5.963-15.643 2.094-30.43 4.064-40.442 4.064-4.009 0-6.2-0.319-7.358-0.586-1.301-0.284-2.601-0.479-3.92-0.568 2.797-15.37 9.282-47.086 22.395-61.284 3.421-4.277 6.36-7.862 9.496-11.714 16.943-20.783 40.389-40.093 51.382-72.839 58.098 8.927 113.399 9.761 160.63 2.378 7.714 19.417 20.863 29.426 26.243 33.952 1.817 1.544 5.22 4.206 9.674 7.72v0zM646.295 647.102v0c0.127-0.042 0.276-0.063 0.404-0.105 1.423-4.689 3.336-9.169 6.055-13.146-3.421 4.103-5.46 7.808-6.459 13.251zM646.433 563.303c-2.688 2.396-6.028 5.264-9.665 8.25-0.652 0.53-1.245 1.1-1.818 1.728-3.202 3.477-6.167 6.403-8.875 9.114-11.76 11.648-22.868 22.647-24.608 49.223-0.079 1.395 0.119 2.632 0.099 3.987-48.108 7.307-105.467 6.423-165.178-2.514 0.632-16.597-2.51-33.745-11.187-51.049-0.336-0.707-0.751-1.395-1.206-2.062-4.862-7.11-10.001-12.983-15.278-17.422-85.899-72.243-146.835-162.458-181.108-253.341-33.917-89.803-36.328-125.158-35.874-153.678 0.672-43.664 1.937-121.799 174.961-124.333 209.056-3.103 221.923-1.827 323.161-0.707 172.491 1.866 173.736 80.905 174.408 125.040 0.435 28.5-1.977 63.856-35.854 153.678-42.278 112.018-167.806 240.632-181.978 254.087v0zM507.211 134.789v105.283h-80.551c-11.445 0-20.787 8.659-20.787 19.245 0 10.615 9.343 19.273 20.787 19.273h80.551v73.702h-80.551c-11.445 0-20.787 8.63-20.787 19.245s9.343 19.273 20.787 19.273h54.275l-46.275 57.906c-6.306 8.745-3.708 20.712 5.81 26.609 3.445 2.129 7.416 3.251 11.532 3.251 6.978 0 13.459-3.222 17.342-8.572l50.655-70.304c1.693-2.359 2.774-6.012 3.066-7.22l0.38-1.668h9.138l0.38 1.668c0.029 0.058 1.051 4.401 3.066 7.22l50.655 70.304c3.854 5.35 10.306 8.572 17.313 8.572 4.087 0 8.087-1.122 11.562-3.251 4.613-2.848 7.766-7.192 8.846-12.226 1.080-5.063 0-10.183-3.095-14.441l-46.246-57.849h54.275c11.445 0 20.787-8.659 20.787-19.273s-9.343-19.245-20.787-19.245h-80.551v-73.702h80.551c11.445 0 20.787-8.659 20.787-19.273 0-10.586-9.343-19.245-20.787-19.245h-80.551v-105.283c0-10.615-9.313-19.245-20.787-19.245s-20.787 8.63-20.787 19.245z" />
<glyph unicode="&#xe941;" glyph-name="warning" d="M512-32c-264.81 0-480 215.339-480 480s215.19 480 480 480c264.561 0 480-215.339 480-480s-215.439-480-480-480zM512 257.745c20.696 0 37.403 16.557 37.403 37.228v0.349c0 20.646-16.706 37.403-37.403 37.403s-37.403-16.756-37.403-37.403c0-20.671 16.706-37.577 37.403-37.577zM512 391.173c20.696 0 37.403 16.756 37.403 37.403v197.411c0 20.671-16.706 37.403-37.403 37.403s-37.403-16.731-37.403-37.403v-197.411c0-20.646 16.706-37.403 37.403-37.403z" />
<glyph unicode="&#xe942;" glyph-name="wechat" d="M392.922 340.77c0-25.406 4.48-49.903 12.498-73.127l-1.92-2.043c-10.489-0.821-21.013-1.31-31.769-1.31-42.382 0-76.462 8.416-119.039 16.71l-118.702-58.477 33.973 100.383c-85.084 58.355-135.964 133.681-135.964 225.316 0 158.72 152.977 283.776 339.731 283.776 165.937 0 311.234-98.48 342.060-231.428-3.467 0.105-6.898 0.471-10.4 0.471-173.67 0-310.469-116.919-310.469-260.273zM992 339.534c0-75.257-50.809-141.923-118.986-192.175l25.511-83.359-93.155 50.096c-33.938-8.416-68.16-16.763-101.973-16.763-161.652 0-288.976 108.572-288.976 242.201 0 133.437 127.324 242.236 288.976 242.236 152.675 0 288.603-108.799 288.603-242.236zM499.19 690.168c-25.493 0-51.004-16.57-51.004-41.749 0-24.952 25.511-41.679 51.004-41.679 25.653 0 42.56 16.728 42.56 41.679 0 25.179-16.907 41.749-42.56 41.749zM261.448 606.734c25.422 0 42.4 16.728 42.4 41.697 0 25.161-16.978 41.732-42.4 41.732-25.458 0-51.235-16.57-51.235-41.732 0-24.969 25.778-41.697 51.235-41.697zM609.711 381.259c25.707 0 42.578 16.536 42.578 33.438 0 16.588-16.871 33.35-42.578 33.35-16.924 0-34.009-16.763-34.009-33.35 0-16.902 17.084-33.438 34.009-33.438zM796.654 381.259c25.458 0 42.506 16.536 42.506 33.438 0 16.588-17.049 33.35-42.506 33.35-16.871 0-33.778-16.763-33.778-33.35 0-16.902 16.907-33.438 33.778-33.438z" />
<glyph unicode="&#xe943;" glyph-name="yes-hollow" d="M368.777 45.326l-323.454 325.386c-8.512 8.514-13.323 20.36-13.323 32.205 0 12.216 4.811 23.691 13.323 32.205l165.798 165.099c8.512 8.514 19.985 13.326 31.827 13.326 12.213 0 23.685-4.812 32.197-13.326l126.569-127.341 347.88 346.116c17.764 17.398 46.261 17.398 64.025-0.37l165.058-165.839c8.512-8.514 13.323-20.36 13.323-32.205 0-12.216-4.811-23.691-13.323-32.205l-545.875-543.050c-8.512-8.514-19.985-13.326-31.827-13.326-12.213 0-23.685 4.812-32.197 13.326zM233.559 499.473l-101.403-101.058 259.8-261.345 481.48 479.010-101.033 101.429-347.88-346.116c-17.764-17.398-46.261-17.398-64.025 0.37l-126.939 127.711z" />
<glyph unicode="&#xe944;" glyph-name="yes" d="M206.66 478.207c-17.994 18.005-47.169 18.005-65.164 0s-17.994-47.197 0-65.202l229.494-239.39c17.994-18.005 47.169-18.005 65.164 0l478.351 483.679c17.994 18.005 17.994 47.197 0 65.202s-47.169 18.005-65.164 0l-445.769-451.078-196.912 206.789z" />
<glyph unicode="&#xe945;" glyph-name="task" d="M992 345.6c0-11.378-1.78-22.044-5.339-32-0.712-0.711-1.068-1.778-1.068-3.2-0.712-1.422-1.78-3.2-3.204-5.333-0.712-1.422-1.78-3.2-3.204-5.333-1.424-2.844-3.204-5.333-5.339-7.467-1.424-2.133-3.204-3.911-5.339-5.333l-298.999-295.467c-7.831-7.822-16.73-13.511-26.696-17.067-9.255-4.267-19.221-6.4-29.9-6.4-12.814 0-24.917 3.2-36.307 9.6-7.119 3.556-13.882 8.178-20.289 13.867l-255.217 251.733-254.149 251.733c-4.271 4.267-7.831 8.889-10.679 13.867 0 0.711-0.356 1.422-1.068 2.133-0.712 2.133-1.424 4.622-2.136 7.467l-1.068 2.133v328.533c0 21.333 7.653 39.822 22.959 55.467s33.993 23.467 56.062 23.467h310.745c9.255 0 18.153-2.489 26.696-7.467 3.56-2.133 6.763-4.978 9.611-8.533l511.502-515.2c2.136-2.133 4.627-4.978 7.475-8.533 4.271-6.4 7.831-13.156 10.679-20.267 2.136-6.4 3.56-12.8 4.271-19.2v-3.2zM894.712 362.985c-234.47 236.696-234.47 236.696-468.941 473.393-7.342 7.411-18.118 14.823-30.456 14.823-110.813 0-200.919 0-258.066 0-8.743 0-30.251 1.525-28.364-23.688 0-60.2 0-155.039 0-272.332 0-6.384 7.478-20.718 14.955-28.123 77.24-76.486 154.479-152.972 231.719-229.457 79.070-77.991 158.14-155.982 237.21-233.973 9.003-8.88 23.49-14.169 36.881-3.33 119.679 118.265 210.028 207.547 271.049 267.847 9.556 10.331 3.679 25.081-5.988 34.84zM192.178 654.933c-14.95 14.933-22.425 32.889-22.425 53.867s7.475 38.933 22.425 53.867c14.95 14.933 32.925 22.4 53.927 22.4s38.977-7.467 53.927-22.4c14.95-14.933 22.425-32.889 22.425-53.867s-7.475-38.933-22.425-53.867c-14.95-14.933-32.925-22.4-53.927-22.4s-38.977 7.467-53.927 22.4z" />
<glyph unicode="&#xe946;" glyph-name="shelves" d="M897.385 928c26.154 0 48.461-9.231 66.923-27.692s27.692-40.769 27.692-66.923v-608.923c0-26.154-9.231-48.846-27.692-68.077s-40.769-28.846-66.923-28.846h-608.923c-26.154 0-48.846 9.615-68.077 28.846s-28.846 41.923-28.846 68.077v608.923c0 26.154 9.615 48.461 28.846 66.923s41.923 27.692 68.077 27.692h608.923zM272.364 857.262c-6.615 0-12.205-5.494-12.205-11.944v-631.296c0-6.45 5.59-11.944 12.205-11.944h639.761c6.615 0 12.206 5.494 12.206 11.944v631.296c0 6.45-5.59 11.944-12.206 11.944h-639.761zM110.832 736.462v-689.098h689.629c19.785-4.842 29.677-17.854 29.677-39.035 0-21.409-9.892-34.852-29.677-40.329h-673.846c-26.154 0-48.461 9.231-66.923 27.692s-27.692 40.769-27.692 66.923v673.846c8.552 13.918 21.938 20.877 40.161 20.877s31.113-6.959 38.671-20.877zM432.245 613.662l131.25 125c7.5 7.5 17.083 11.25 28.75 11.25 10.833 0 20-3.75 27.5-11.25l132.5-125c7.5-7.5 11.25-16.458 11.25-26.875s-3.75-19.375-11.25-26.875c-7.5-7.5-17.083-11.25-28.75-11.25s-21.25 3.75-28.75 11.25l-62.5 60v-271.25c0-10.833-3.958-20-11.875-27.5s-17.292-11.25-28.125-11.25c-10.833 0-20.208 3.75-28.125 11.25s-11.875 16.667-11.875 27.5v271.25l-62.5-61.25c-7.5-7.5-17.083-11.25-28.75-11.25s-21.25 3.75-28.75 11.25c-7.5 7.5-11.25 16.667-11.25 27.5s3.75 20 11.25 27.5z" />
<glyph unicode="&#xe947;" glyph-name="shelves-off" d="M737.517 767.847c26.154 0 48.461-9.231 66.923-27.692s27.692-40.769 27.692-66.923v-608.923c0-26.154-9.231-48.846-27.692-68.077s-40.769-28.846-66.923-28.846h-608.923c-26.154 0-48.846 9.615-68.077 28.846s-28.846 41.923-28.846 68.077v608.923c0 26.154 9.615 48.461 28.846 66.923s41.923 27.692 68.077 27.692h608.923zM112.497 697.109c-6.615 0-12.205-5.494-12.205-11.944v-631.296c0-6.45 5.59-11.944 12.205-11.944h639.761c6.615 0 12.205 5.494 12.205 11.944v631.296c0 6.45-5.59 11.944-12.205 11.944h-639.761zM912.907 159.538v689.098h-689.629c-19.785 4.842-29.677 17.854-29.677 39.035 0 21.409 9.892 34.852 29.677 40.329h673.846c26.154 0 48.461-9.231 66.923-27.692s27.692-40.769 27.692-66.923v-673.846c-8.552-13.918-21.938-20.877-40.161-20.877s-31.113 6.959-38.671 20.877zM271.902 285.767c-7.5 7.5-11.25 16.667-11.25 27.5s3.75 20 11.25 27.5c7.5 7.5 17.083 11.25 28.75 11.25s21.25-3.75 28.75-11.25l62.5-61.25v271.25c0 10.833 3.958 20 11.875 27.5s17.292 11.25 28.125 11.25c10.833 0 20.208-3.75 28.125-11.25s11.875-16.667 11.875-27.5v-271.25l62.5 60c7.5 7.5 17.083 11.25 28.75 11.25s21.25-3.75 28.75-11.25c7.5-7.5 11.25-16.458 11.25-26.875s-3.75-19.375-11.25-26.875l-132.5-125c-7.5-7.5-16.667-11.25-27.5-11.25-11.667 0-21.25 3.75-28.75 11.25l-131.25 125z" />
<glyph unicode="&#xe948;" glyph-name="home" d="M371.582 878.973c20.334 0 37.618-7.117 51.852-21.351s21.351-31.518 21.351-51.852v-266.378c0-20.334-7.117-37.618-21.351-51.852s-31.518-21.351-51.852-21.351h-266.378c-20.334 0-37.618 7.117-51.852 21.351s-21.351 31.518-21.351 51.852v266.378c0 20.334 7.117 37.618 21.351 51.852s31.518 21.351 51.852 21.351h266.378zM748.73 917.916c17.61 10.167 36.137 12.646 55.581 7.436s34.249-16.62 44.417-34.23l133.189-230.69c10.167-17.61 12.646-36.137 7.436-55.581s-16.62-34.249-34.23-44.417l-230.69-133.189c-17.61-10.167-36.137-12.646-55.581-7.436s-34.249 16.62-44.417 34.23l-133.189 230.69c-10.167 17.61-12.646 36.137-7.436 55.581s16.62 34.249 34.23 44.417l230.69 133.189zM371.582 380.785c20.334 0 37.618-7.117 51.852-21.351s21.351-31.518 21.351-51.852v-266.378c0-20.334-7.117-37.618-21.351-51.852s-31.518-21.351-51.852-21.351h-266.378c-20.334 0-37.618 7.117-51.852 21.351s-21.351 31.518-21.351 51.852v266.378c0 20.334 7.117 37.618 21.351 51.852s31.518 21.351 51.852 21.351h266.378zM869.77 380.785c20.334 0 37.618-7.117 51.852-21.351s21.351-31.518 21.351-51.852v-266.378c0-20.334-7.117-37.618-21.351-51.852s-31.518-21.351-51.852-21.351h-266.378c-20.334 0-37.618 7.117-51.852 21.351s-21.351 31.518-21.351 51.852v266.378c0 20.334 7.117 37.618 21.351 51.852s31.518 21.351 51.852 21.351h266.378z" />
<glyph unicode="&#xe949;" glyph-name="gear" d="M792.32 448c0 17.067-0.853 29.44-2.56 37.12l79.36 60.16c3.413 2.56 5.333 6.4 5.76 11.52s-0.64 9.813-3.2 14.080l-74.24 129.28c-2.56 3.413-5.973 5.973-10.24 7.68s-8.533 1.707-12.8 0l-92.16-37.12c-20.48 15.36-41.387 27.733-62.72 37.12l-15.36 97.28c-3.413 10.24-8.96 15.36-16.64 15.36h-151.040c-8.533 0-14.080-5.12-16.64-15.36l-15.36-99.84c-27.307-11.947-48.213-23.467-62.72-34.56l-92.16 37.12c-3.413 0.853-7.467 0.427-12.16-1.28s-8.32-4.693-10.88-8.96l-74.24-126.72c-2.56-4.267-3.627-8.96-3.2-14.080s2.347-8.96 5.76-11.52l79.36-60.16c-1.707-7.68-2.56-19.84-2.56-36.48s0.853-29.227 2.56-37.76l-79.36-60.16c-3.413-2.56-5.333-6.4-5.76-11.52s0.64-9.813 3.2-14.080l74.24-129.28c2.56-3.413 5.973-5.973 10.24-7.68s8.533-1.707 12.8 0l92.16 37.12c25.6-17.067 46.507-29.44 62.72-37.12l15.36-97.28c3.413-10.24 8.96-15.36 16.64-15.36h151.040c8.533 0 14.080 5.12 16.64 15.36l15.36 99.84c23.893 10.24 44.8 21.76 62.72 34.56l92.16-37.12c3.413-0.853 7.467-0.427 12.16 1.28s8.32 4.693 10.88 8.96l74.24 126.72c2.56 4.267 3.627 8.96 3.2 14.080s-2.347 8.96-5.76 11.52l-79.36 60.16c1.707 8.533 2.56 20.907 2.56 37.12zM884.48 928c29.867 0 55.253-10.667 76.16-32s31.36-46.507 31.36-75.52v-744.96c0-29.013-10.453-54.187-31.36-75.52s-46.293-32-76.16-32h-744.96c-29.867 0-55.253 10.667-76.16 32s-31.36 46.507-31.36 75.52v744.96c0 29.013 10.453 54.187 31.36 75.52s46.293 32 76.16 32h744.96zM512 555.52c29.013 0 54.187-10.667 75.52-32s32-46.507 32-75.52c0-29.013-10.667-54.187-32-75.52s-46.507-32-75.52-32c-29.013 0-54.187 10.667-75.52 32s-32 46.507-32 75.52c0 29.013 10.667 54.187 32 75.52s46.507 32 75.52 32z" />
<glyph unicode="&#xe94a;" glyph-name="stock" d="M671.375 392h197.5c-1.25 3.125-1.875 6.875-3.125 10l-132.5 310h-442.5l-132.5-310c-1.25-3.125-1.875-6.875-3.125-10h197.5l59.375-120h200l59.375 120zM992 373.25v-301.25c0-21.875-18.125-40-40-40h-880c-21.875 0-40 18.125-40 40v301.25c0 22.5 6.875 55.625 15.625 76.875l148.75 345c8.75 20.625 33.75 36.875 55.625 36.875h520c21.875 0 46.875-16.25 55.625-36.875l148.75-345c8.75-21.25 15.625-54.375 15.625-76.875z" />
</font>
</defs>
</svg>
